<?xml version="1.0" standalone="no"?>
<!DOCTYPE svg PUBLIC "-//W3C//DTD SVG 20010904//EN"
 "http://www.w3.org/TR/2001/REC-SVG-20010904/DTD/svg10.dtd">
<svg version="1.0" xmlns="http://www.w3.org/2000/svg"
 width="14400.000000pt" height="7200.000000pt" viewBox="0 0 14400.000000 7200.000000"
 preserveAspectRatio="xMidYMid meet">
<metadata>
Created by potrace 1.12, written by Peter Selinger 2001-2015
</metadata>
<g transform="translate(0.000000,7200.000000) scale(7.200000,-7.200000)"
fill="#000000" stroke="none">
<path d="M0 499 l0 -499 678 0 c372 0 682 4 688 8 6 4 16 20 22 37 l11 30 -2
-35 -2 -35 303 -3 302 -2 0 499 0 500 -1000 -1 -1000 0 0 -499z m925 464 c0
-15 -7 -28 -15 -31 -9 -2 -11 0 -5 5 6 4 10 15 10 23 -1 15 3 30 9 30 2 0 2
-12 1 -27z m239 6 c-3 -5 -1 -16 5 -23 8 -10 6 -12 -9 -11 -11 1 -23 5 -27 10
-5 4 -2 5 5 1 11 -7 17 12 13 37 -1 5 3 6 9 2 6 -3 8 -11 4 -16z m-137 -3 c0
-8 -5 -14 -11 -13 -6 1 -9 -5 -8 -13 2 -8 0 -11 -4 -7 -11 11 -14 38 -4 32 5
-3 11 -1 15 5 8 14 12 13 12 -4z m56 1 c4 3 7 1 7 -6 0 -7 -6 -11 -14 -8 -8 3
-17 1 -19 -6 -3 -7 -4 -2 -4 10 1 15 5 19 13 13 6 -6 14 -7 17 -3z m302 -17
c-3 -4 0 -11 5 -13 7 -4 6 -5 0 -3 -7 1 -10 5 -8 8 2 4 -6 14 -17 23 -19 16
-19 16 3 5 12 -6 20 -15 17 -20z m-860 10 c3 -5 1 -10 -4 -10 -6 0 -11 5 -11
10 0 6 2 10 4 10 3 0 8 -4 11 -10z m125 -11 c0 -5 -4 -9 -8 -9 -5 0 -9 7 -9
15 0 8 4 12 9 9 4 -3 8 -9 8 -15z m42 8 c-16 -19 20 -50 38 -34 8 9 10 8 5 -5
-9 -24 -20 -23 -44 4 -16 16 -18 25 -10 35 6 7 14 13 16 13 3 0 1 -6 -5 -13z
m138 -2 c-5 -7 -9 -14 -7 -16 1 -2 0 -3 -2 -1 -11 7 -7 29 5 29 9 0 11 -4 4
-12z m491 -3 c-7 -2 -18 1 -23 6 -8 8 -4 9 13 5 13 -4 18 -8 10 -11z m-596 -2
c3 -5 1 -10 -4 -10 -6 0 -11 5 -11 10 0 6 2 10 4 10 3 0 8 -4 11 -10z m42 -23
c-1 -11 3 -22 10 -24 6 -2 10 4 9 14 -2 10 -1 12 1 6 3 -7 9 -13 14 -13 6 0 7
6 4 13 -4 6 3 1 14 -12 21 -24 24 -22 22 14 l-1 20 9 -20 c7 -14 10 -15 10 -5
1 13 2 13 11 0 5 -8 10 -11 10 -6 0 5 8 2 18 -7 22 -20 30 -21 48 -2 9 8 21
12 27 8 7 -4 23 -7 35 -8 13 0 38 -13 54 -30 18 -17 29 -23 25 -13 -8 22 17
56 28 38 5 -8 4 -11 -2 -7 -6 4 -10 -3 -10 -17 0 -14 5 -23 11 -22 6 2 8 1 4
-1 -5 -3 -8 -9 -8 -14 0 -6 5 -7 12 -3 7 4 8 3 4 -4 -4 -7 -2 -20 4 -29 11
-17 11 -17 6 0 -7 24 15 72 25 55 5 -7 16 -13 25 -13 10 0 19 -6 21 -12 3 -7
0 -13 -7 -13 -6 0 -8 5 -5 10 3 6 2 10 -4 10 -5 0 -14 -7 -19 -16 -6 -11 -11
-13 -16 -5 -4 6 -2 11 4 11 6 0 8 5 4 11 -4 8 -9 7 -15 -2 -4 -8 -4 -18 1 -23
4 -4 6 -14 4 -21 -9 -21 14 -27 38 -11 25 18 17 21 -13 6 -13 -8 -19 -7 -19 0
0 17 31 24 51 12 15 -10 17 -8 15 11 -1 13 -5 28 -9 34 -8 13 30 39 41 29 3
-3 0 -6 -8 -6 -10 0 -10 -3 1 -17 11 -15 11 -16 -1 -5 -18 15 -38 16 -23 1 6
-6 9 -17 7 -24 -6 -14 24 -41 34 -30 4 4 1 10 -5 12 -7 3 -13 9 -13 15 0 5 19
-4 42 -21 36 -27 43 -29 52 -15 7 8 16 15 21 14 22 -5 29 1 15 11 -12 8 -12
10 -1 7 8 -2 15 -12 17 -21 1 -9 -2 -15 -6 -12 -5 3 -8 -4 -7 -15 1 -11 6 -20
12 -20 5 0 1 -7 -9 -15 -10 -8 -23 -12 -27 -9 -14 9 -10 -6 6 -22 14 -15 20
-11 15 11 -1 6 2 6 7 2 12 -13 11 -167 -2 -159 -5 3 -4 -1 3 -10 10 -13 10
-17 -2 -21 -7 -3 -20 0 -27 6 -11 10 -11 9 0 -5 7 -10 18 -15 23 -12 7 4 9 -6
6 -29 -2 -20 -1 -34 3 -31 4 2 8 -54 8 -125 l0 -130 -29 31 c-16 17 -27 36
-23 42 3 6 0 5 -8 -2 -19 -18 -32 -15 -24 5 5 15 4 16 -6 6 -15 -15 -49 -17
-49 -3 0 5 -3 9 -7 9 -30 -5 -34 3 -11 24 20 19 25 33 24 68 0 24 -5 47 -10
51 -6 4 -10 23 -10 42 0 20 -3 31 -6 26 -4 -6 -12 1 -18 15 -7 15 -10 31 -7
36 4 5 1 9 -5 9 -7 0 -9 7 -6 16 3 8 2 13 -3 10 -11 -7 -23 22 -15 35 3 5 0 8
-8 7 -7 -2 -12 3 -10 11 2 8 -3 11 -11 8 -17 -6 -60 20 -53 32 3 4 -1 8 -9 8
-8 0 -12 -4 -9 -9 9 -15 -19 -8 -40 10 -20 16 -20 16 -6 -1 12 -16 12 -18 -1
-16 -7 1 -34 -1 -59 -6 -25 -5 -49 -8 -53 -7 -5 2 -6 -2 -2 -8 3 -5 -2 -13
-12 -17 -10 -3 -30 -19 -45 -34 -14 -15 -30 -24 -34 -21 -5 4 -2 -1 5 -10 7
-10 11 -23 8 -30 -2 -7 -1 -20 3 -28 4 -8 10 -28 14 -43 5 -22 4 -27 -6 -21
-10 5 -11 4 0 -7 15 -16 16 -59 1 -59 -5 0 -8 4 -5 9 4 5 -4 7 -16 5 l-23 -5
23 12 c12 7 22 16 22 21 0 5 -10 3 -22 -3 -21 -11 -22 -11 -10 4 11 13 10 21
-3 47 -9 18 -14 41 -12 52 4 16 3 17 -9 7 -11 -9 -14 -9 -14 0 0 7 -4 10 -8 7
-5 -3 -9 1 -9 9 0 7 8 12 19 10 10 -2 18 1 18 7 0 5 -7 8 -15 5 -8 -4 -17 -2
-20 3 -3 5 -20 7 -38 5 -23 -3 -28 -2 -17 5 11 7 11 10 2 10 -7 0 -10 5 -7 10
3 6 2 10 -4 10 -5 0 -11 -4 -13 -9 -1 -5 -10 -11 -18 -13 -8 -2 -19 -7 -23
-13 -5 -6 -7 -3 -3 8 3 11 0 17 -10 17 -8 0 -13 -4 -10 -9 3 -5 0 -9 -7 -8 -6
0 -21 -1 -31 -1 -19 -2 -19 -2 0 -24 l19 -23 -22 19 c-13 10 -20 22 -18 27 11
17 -19 21 -32 4 -7 -11 -13 -14 -13 -8 0 7 5 15 11 19 8 4 7 9 -2 15 -21 13
-29 11 -22 -6 4 -13 0 -15 -21 -11 -14 3 -26 0 -26 -5 0 -5 -5 -9 -11 -9 -8 0
-8 5 1 15 7 8 8 15 2 15 -5 0 -17 -10 -27 -23 -16 -21 -16 -21 -1 6 9 15 12
27 7 27 -6 0 -15 -8 -20 -17 -6 -10 -11 -12 -11 -5 0 6 -6 12 -14 12 -8 0 -17
4 -21 9 -9 16 22 39 49 36 14 -2 26 -1 26 2 0 13 -22 43 -32 43 -7 0 -6 -5 2
-15 7 -9 8 -15 2 -15 -5 0 -12 7 -16 15 -3 8 -11 15 -17 15 -8 0 -8 -4 1 -15
9 -10 9 -15 1 -15 -6 0 -11 5 -11 10 0 6 0 13 0 18 0 4 7 7 16 7 8 0 19 7 24
15 9 13 10 13 10 0 0 -9 9 -16 19 -17 19 -2 20 2 9 47 -1 8 -9 20 -17 26 -8 6
-11 17 -8 25 4 11 6 10 6 -2 1 -9 8 -20 17 -23 8 -3 12 -10 9 -16 -3 -5 0 -10
8 -10 21 0 17 29 -5 36 -22 7 -19 41 3 35 35 -9 69 -7 73 6 4 10 -2 12 -26 8
-18 -4 -30 -3 -27 0 7 7 46 16 75 19 25 1 56 25 48 37 -3 5 3 6 12 2 10 -4 13
-8 7 -10 -14 -5 -6 -33 9 -33 5 0 6 5 2 12 -5 7 -3 8 5 4 8 -6 11 -2 9 10 -2
11 -10 22 -18 26 -11 6 -10 7 5 5 11 -1 21 -8 21 -15 1 -6 2 -17 3 -23 0 -5 6
-7 11 -4 6 3 10 1 10 -5 0 -6 4 -9 10 -5 5 3 6 13 3 21 -3 9 6 4 21 -10 26
-27 34 -42 16 -31 -5 3 -10 1 -10 -4 0 -6 -5 -11 -11 -11 -5 0 -8 4 -4 9 3 5
0 13 -6 17 -8 4 -9 3 -5 -4 4 -7 2 -12 -3 -12 -6 0 -11 5 -11 10 0 6 -4 10
-10 10 -6 0 -9 -3 -9 -7 3 -21 -3 -24 -18 -12 -14 12 -16 12 -9 -1 4 -8 0 -6
-8 4 -9 11 -16 15 -16 10 0 -6 6 -16 13 -23 10 -11 9 -12 -2 -6 -9 5 -12 4 -7
-3 4 -7 -1 -10 -14 -7 -11 2 -20 0 -20 -6 0 -5 -6 -8 -12 -6 -7 1 -12 -6 -12
-15 1 -10 -2 -15 -7 -12 -5 3 -9 1 -9 -5 0 -5 6 -12 13 -15 6 -3 3 -4 -8 -3
-11 1 -20 -4 -21 -13 -3 -36 -5 -41 -14 -35 -8 5 -8 11 0 20 8 9 8 15 0 20 -5
3 -10 -1 -10 -10 0 -9 -4 -14 -9 -10 -5 3 -13 0 -17 -6 -4 -7 -3 -9 3 -6 5 3
10 0 10 -8 0 -8 -5 -11 -10 -8 -6 4 -7 1 -1 -8 5 -8 9 -18 9 -23 0 -5 11 -16
25 -25 14 -9 21 -11 16 -3 -8 14 -5 15 19 6 13 -5 14 -9 3 -15 -9 -6 -6 -8 10
-6 27 2 29 14 2 22 -11 4 -18 11 -15 16 3 5 -1 6 -9 3 -13 -5 -13 -2 -3 20 13
27 33 37 23 11 -8 -22 -1 -19 32 14 23 23 26 31 15 35 -20 8 -36 -3 -29 -20 3
-8 2 -14 -2 -14 -11 0 -37 19 -32 23 34 27 55 35 71 26 15 -8 17 -6 13 6 -4
10 -2 15 7 13 8 -2 14 5 14 14 0 9 4 20 8 24 4 4 7 2 7 -5 0 -8 8 -11 20 -8
13 3 25 -2 35 -16 8 -12 15 -17 15 -13 0 5 -7 18 -17 28 -19 21 -6 24 19 4 10
-7 15 -16 11 -20 -4 -4 0 -4 9 -1 13 5 15 2 11 -14 -3 -12 -3 -21 0 -21 2 0 7
9 10 20 4 15 -2 24 -25 36 -37 19 -31 29 8 13 43 -18 57 -19 71 -7 7 6 13 9
14 7 10 -51 10 -52 -8 -38 -15 11 -16 11 -6 -1 7 -8 20 -15 28 -16 12 -2 13 2
5 17 -6 10 -8 19 -4 19 4 0 -1 9 -11 20 -24 27 -12 25 32 -4 l36 -25 38 20
c45 23 50 23 43 6 -3 -8 3 -20 12 -28 12 -9 15 -10 10 -1 -5 8 0 12 15 12 21
0 22 -1 4 -20 -29 -32 -11 -23 30 14 31 29 35 37 26 53 -10 16 -11 15 -5 -7 6
-22 5 -23 -9 -11 -9 7 -14 18 -10 24 4 6 1 7 -7 2 -9 -6 -11 -4 -5 6 5 8 5 11
0 7 -4 -4 -16 -3 -26 3 -13 7 -19 6 -19 -1 0 -6 -5 -8 -12 -4 -9 6 -9 9 -1 11
13 5 6 33 -8 33 -10 0 -7 -36 4 -46 10 -10 9 -24 -2 -24 -10 0 -27 39 -23 53
1 5 -2 6 -8 2 -6 -3 -8 -10 -6 -14 3 -4 -4 -8 -15 -8 -11 -1 -17 2 -14 7 3 5
0 12 -6 16 -8 4 -9 3 -5 -5 4 -7 2 -10 -4 -9 -7 2 -14 -5 -15 -15 -5 -29 -15
-33 -15 -7 0 21 -13 21 -16 -1 -1 -5 -2 -12 -3 -15 0 -4 -8 -1 -16 6 -8 7 -15
8 -15 3 0 -5 -7 -10 -15 -10 -8 0 -12 3 -10 7 2 4 -2 7 -10 7 -8 0 -11 -5 -8
-11 4 -6 -1 -5 -10 3 -11 9 -17 10 -17 2 0 -10 14 -15 33 -12 5 1 7 -3 5 -9
-2 -7 -8 -10 -13 -9 -46 11 -45 9 -30 40 19 35 19 40 0 33 -8 -4 -12 -11 -9
-16 4 -6 -3 -5 -15 1 -23 13 -29 23 -8 15 10 -3 13 5 13 29 -1 21 3 34 11 34
7 0 11 -9 10 -20z m361 -13 c-4 -3 -12 5 -18 18 -12 22 -12 22 6 6 10 -10 15
-20 12 -24z m127 26 c3 -6 -1 -7 -9 -4 -18 7 -21 14 -7 14 6 0 13 -4 16 -10z
m-712 -15 c-3 -9 -8 -14 -10 -11 -3 3 -2 9 2 15 9 16 15 13 8 -4z m754 -17
c-3 -7 -5 -2 -5 12 0 14 2 19 5 13 2 -7 2 -19 0 -25z m-667 18 c0 -2 -7 -7
-16 -10 -8 -3 -12 -2 -9 4 6 10 25 14 25 6z m45 -6 c3 -6 -1 -7 -9 -4 -18 7
-21 14 -7 14 6 0 13 -4 16 -10z m265 0 c-8 -5 -19 -10 -25 -10 -5 0 -3 5 5 10
8 5 20 10 25 10 6 0 3 -5 -5 -10z m120 0 c0 -5 -5 -10 -11 -10 -5 0 -7 5 -4
10 3 6 8 10 11 10 2 0 4 -4 4 -10z m28 -10 c-7 -10 -14 -17 -17 -15 -4 4 18
35 25 35 2 0 -1 -9 -8 -20z m172 5 c0 -2 -6 -5 -13 -8 -8 -3 -14 1 -14 8 0 7
6 11 14 8 7 -3 13 -6 13 -8z m90 5 c0 -5 -4 -10 -10 -10 -5 0 -10 5 -10 10 0
6 5 10 10 10 6 0 10 -4 10 -10z m35 -8 c-3 -3 -11 0 -18 7 -9 10 -8 11 6 5 10
-3 15 -9 12 -12z m-918 -17 c0 -8 -4 -12 -9 -9 -5 3 -6 10 -3 15 9 13 12 11
12 -6z m690 6 c-10 -4 -18 -11 -17 -16 1 -5 -4 -11 -12 -13 -9 -2 -8 0 2 7 8
6 11 11 7 11 -5 0 -5 5 -2 10 3 6 14 10 23 9 15 0 15 -1 -1 -8z m50 3 c-3 -3
-12 -4 -19 -1 -8 3 -5 6 6 6 11 1 17 -2 13 -5z m117 -34 c-5 -5 -10 3 -11 18
-1 22 0 24 9 8 6 -10 6 -22 2 -26z m-814 26 c0 -2 -8 -10 -17 -17 -16 -13 -17
-12 -4 4 13 16 21 21 21 13z m878 -26 l14 -25 -18 21 c-11 12 -26 24 -34 28
-10 4 -9 5 4 3 10 -1 25 -13 34 -27z m-793 10 c-3 -5 -12 -10 -18 -10 -7 0 -6
4 3 10 19 12 23 12 15 0z m589 -5 c-4 -8 -8 -15 -10 -15 -2 0 -4 7 -4 15 0 8
4 15 10 15 5 0 7 -7 4 -15z m45 12 c-2 -1 -13 -9 -24 -17 -19 -14 -19 -14 -6
3 7 9 18 17 24 17 6 0 8 -1 6 -3z m65 -5 c7 -12 -12 -38 -21 -28 -4 5 -2 11 6
14 11 4 11 6 0 13 -9 6 -10 9 -2 9 6 0 14 -4 17 -8z m-847 -17 c0 -8 -4 -15
-9 -15 -10 0 -11 14 -1 23 9 10 10 9 10 -8z m-142 -5 c3 -5 1 -10 -4 -10 -6 0
-11 5 -11 10 0 6 2 10 4 10 3 0 8 -4 11 -10z m45 0 c0 -5 -5 -10 -11 -10 -5 0
-7 5 -4 10 3 6 8 10 11 10 2 0 4 -4 4 -10z m146 -5 c-11 -8 -25 -15 -30 -15
-6 1 0 7 14 15 32 19 40 18 16 0z m450 -4 c20 3 32 -2 37 -15 4 -10 0 -12 -14
-9 -10 3 -16 10 -12 16 4 6 1 7 -7 2 -10 -6 -10 -11 3 -20 15 -11 14 -13 -7
-23 -19 -8 -29 -6 -52 10 -16 11 -21 18 -12 14 19 -6 43 25 30 40 -4 5 0 3 9
-4 9 -7 21 -12 25 -11z m414 9 c-20 -13 -33 -13 -25 0 3 6 14 10 23 10 15 0
15 -2 2 -10z m-970 -14 c0 -3 -4 -8 -10 -11 -5 -3 -10 -1 -10 4 0 6 5 11 10
11 6 0 10 -2 10 -4z m660 -2 c0 -3 -9 -17 -19 -31 -18 -22 -20 -23 -18 -4 1
12 5 21 10 21 4 0 5 5 2 10 -3 6 1 10 9 10 9 0 16 -3 16 -6z m290 -14 c14 -11
21 -20 17 -20 -5 0 -20 9 -34 20 -14 11 -22 20 -17 20 5 0 20 -9 34 -20z m40
10 c0 -5 -4 -10 -10 -10 -5 0 -10 5 -10 10 0 6 5 10 10 10 6 0 10 -4 10 -10z
m-955 -9 c3 -5 0 -13 -6 -17 -8 -5 -9 -3 -4 6 6 10 4 12 -9 7 -10 -4 -15 -3
-11 3 8 13 22 13 30 1z m885 -11 c13 -11 21 -22 19 -24 -2 -2 -17 7 -32 20
-15 13 -24 24 -19 24 5 0 19 -9 32 -20z m-1060 6 c0 -3 -4 -8 -10 -11 -5 -3
-10 -1 -10 4 0 6 5 11 10 11 6 0 10 -2 10 -4z m111 -13 c13 -16 12 -17 -3 -4
-10 7 -18 15 -18 17 0 8 8 3 21 -13z m341 -5 c-12 -12 -35 -1 -27 12 3 5 13 6
21 3 10 -4 12 -9 6 -15z m133 1 c-10 -15 -25 -10 -19 6 4 8 10 12 15 9 5 -3 7
-10 4 -15z m244 7 c9 -11 8 -15 -4 -20 -10 -4 -14 -2 -9 5 4 8 -1 9 -17 4 -21
-7 -22 -6 -10 9 16 20 25 20 40 2z m-426 -7 c-6 -6 -9 -19 -6 -28 4 -12 3 -13
-5 -3 -7 11 -11 10 -16 -4 -3 -9 -9 -14 -13 -11 -3 4 -13 2 -22 -3 -13 -6 -17
-4 -18 9 -1 10 4 18 10 19 29 2 48 9 59 20 7 7 14 12 17 12 3 0 0 -5 -6 -11z
m-368 -17 c-3 -3 -11 0 -18 7 -9 10 -8 11 6 5 10 -3 15 -9 12 -12z m125 -2 c0
-5 -8 -10 -17 -10 -15 0 -16 2 -3 10 19 12 20 12 20 0z m-104 -30 c0 -12 -4
-16 -9 -11 -5 5 -6 14 -3 20 10 15 12 14 12 -9z m80 -5 c-3 -9 0 -15 9 -15 8
0 15 -5 15 -10 0 -17 -33 5 -36 24 -1 9 2 16 8 16 6 0 8 -7 4 -15z m40 6 c-3
-5 1 -11 9 -15 8 -3 15 -10 15 -16 0 -5 -9 -2 -20 7 -22 19 -26 33 -9 33 5 0
8 -4 5 -9z m-171 -21 c3 -6 -1 -7 -9 -4 -18 7 -21 14 -7 14 6 0 13 -4 16 -10z
m72 -31 c-16 -22 -16 -22 -14 -1 0 11 5 18 9 16 4 -3 8 0 8 7 0 7 3 10 6 6 3
-3 -1 -16 -9 -28z m43 11 c0 -5 -2 -10 -4 -10 -3 0 -8 5 -11 10 -3 6 -1 10 4
10 6 0 11 -4 11 -10z m240 6 c0 -3 -4 -8 -10 -11 -5 -3 -10 -1 -10 4 0 6 5 11
10 11 6 0 10 -2 10 -4z m-265 -26 c-3 -5 -1 -10 5 -10 6 0 8 -5 4 -11 -4 -8
-9 -7 -15 2 -7 12 -3 29 7 29 3 0 2 -4 -1 -10z m188 -13 c4 3 7 1 7 -6 0 -6
-7 -14 -16 -18 -13 -5 -13 -8 -2 -15 10 -8 10 -9 -2 -6 -8 3 -15 16 -15 31 -2
20 1 24 10 17 6 -5 15 -7 18 -3z m-263 -9 c0 -6 -3 -8 -7 -5 -3 4 -13 1 -22
-6 -14 -11 -14 -10 -2 6 15 20 31 22 31 5z m60 -18 c0 -5 -2 -10 -4 -10 -3 0
-8 5 -11 10 -3 6 -1 10 4 10 6 0 11 -4 11 -10z m-70 -15 c-7 -8 -17 -15 -23
-15 -6 0 -2 7 9 15 25 19 30 19 14 0z m51 -27 c-10 -11 -11 -9 -5 6 5 12 4 17
-3 13 -5 -3 -10 1 -10 9 0 13 2 13 16 0 12 -13 13 -18 2 -28z m39 -1 c-8 -9
-9 -7 -4 7 5 13 4 17 -4 12 -8 -5 -10 -2 -5 10 6 15 7 15 16 -1 6 -11 5 -21
-3 -28z m-66 5 c3 -5 -1 -9 -9 -9 -8 0 -12 4 -9 9 3 4 7 8 9 8 2 0 6 -4 9 -8z
m101 -30 c-3 -3 -11 0 -18 7 -9 10 -8 11 6 5 10 -3 15 -9 12 -12z m725 3 c7
-8 18 -15 26 -15 13 0 30 -37 21 -46 -3 -3 -2 -17 2 -32 4 -15 4 -39 0 -54 -5
-19 -3 -28 7 -32 21 -8 17 -37 -6 -43 -11 -3 -20 -9 -20 -14 0 -15 -83 -94
-111 -106 -20 -8 -29 -9 -38 0 -6 6 -11 8 -11 4 0 -4 -9 2 -20 13 -20 20 -28
46 -11 35 10 -6 8 13 -4 50 -6 20 -6 20 9 1 12 -15 19 -16 29 -8 8 7 16 11 18
9 2 -1 -6 6 -18 16 -28 23 -22 37 13 31 l25 -5 -26 28 c-18 19 -29 24 -32 15
-3 -6 -9 -10 -14 -7 -12 8 -22 -37 -16 -79 3 -20 1 -36 -4 -36 -5 0 -9 16 -9
36 0 19 -4 33 -9 30 -9 -6 -7 22 4 73 3 17 10 30 13 30 25 -4 35 2 25 12 -6 6
-9 18 -6 25 4 10 10 8 23 -9 12 -14 15 -26 9 -33 -6 -7 -4 -16 5 -23 12 -10
13 -9 9 8 -3 12 -1 21 6 21 5 0 8 7 5 15 -4 8 -10 13 -14 10 -5 -3 -11 -1 -15
5 -3 5 2 10 11 10 28 0 2 20 -28 22 -23 2 -30 11 -10 14 18 2 41 17 37 23 -2
4 9 5 25 3 15 -2 36 1 47 7 25 14 38 14 53 -4z m-860 -9 c0 -2 -7 -7 -16 -10
-8 -3 -12 -2 -9 4 6 10 25 14 25 6z m120 -10 c0 -2 -7 -9 -15 -16 -13 -11 -14
-10 -9 4 5 14 24 23 24 12z m40 -15 c0 -4 -6 -8 -14 -8 -8 0 -12 6 -9 14 5 13
23 9 23 -6z m354 -3 c-3 -4 -9 -8 -15 -8 -5 0 -9 4 -9 8 0 5 7 9 15 9 8 0 12
-4 9 -9z m-498 -33 c-1 -8 -5 -17 -8 -21 -5 -4 -4 16 1 34 3 9 9 -1 7 -13z
m77 3 c-2 -5 -13 -8 -23 -8 -10 0 -21 3 -23 8 -3 4 8 7 23 7 15 0 26 -3 23 -7z
m31 -6 c3 -5 -1 -9 -9 -9 -8 0 -12 4 -9 9 3 4 7 8 9 8 2 0 6 -4 9 -8z m-44
-16 c0 -2 -7 -7 -16 -10 -8 -3 -12 -2 -9 4 6 10 25 14 25 6z m400 -1 c0 -7
-30 -13 -34 -7 -3 4 4 9 15 9 10 1 19 0 19 -2z m-440 -30 c0 -2 -9 -3 -19 -2
-11 0 -18 5 -15 9 4 6 34 0 34 -7z m54 7 c3 -5 -1 -9 -9 -9 -8 0 -12 4 -9 9 3
4 7 8 9 8 2 0 6 -4 9 -8z m401 -22 c3 -5 1 -10 -4 -10 -6 0 -11 5 -11 10 0 6
2 10 4 10 3 0 8 -4 11 -10z m-435 -4 c0 -2 -8 -10 -17 -17 -16 -13 -17 -12 -4
4 13 16 21 21 21 13z m400 -50 c0 -2 -7 -7 -16 -10 -8 -3 -12 -2 -9 4 6 10 25
14 25 6z m59 -30 c-3 -3 -11 5 -18 17 -13 21 -12 21 5 5 10 -10 16 -20 13 -22z
m91 -6 c16 -10 8 -23 -16 -26 -11 -2 -12 1 -4 11 8 10 7 14 -2 18 -7 3 -8 6
-3 6 6 0 17 -3 25 -9z m-645 -10 c3 -6 -1 -7 -9 -4 -18 7 -21 14 -7 14 6 0 13
-4 16 -10z m40 0 c3 -6 -1 -7 -9 -4 -18 7 -21 14 -7 14 6 0 13 -4 16 -10z
m115 -1 c0 -4 -9 -7 -19 -6 -11 0 -18 4 -16 7 6 9 35 8 35 -1z m-85 -18 c3 -5
2 -12 -3 -15 -5 -3 -9 1 -9 9 0 17 3 19 12 6z m20 -29 c-17 -15 -18 -15 -6 0
7 9 9 23 5 30 -6 10 -4 11 7 0 11 -10 10 -15 -6 -30z m-90 8 c-3 -5 -12 -10
-18 -10 -7 0 -6 4 3 10 19 12 23 12 15 0z m110 -29 c-3 -6 -11 -11 -16 -11 -5
0 -4 6 3 14 14 16 24 13 13 -3z m-115 -11 c0 -5 -2 -10 -4 -10 -3 0 -8 5 -11
10 -3 6 -1 10 4 10 6 0 11 -4 11 -10z m124 -18 c2 -4 -4 -8 -14 -8 -10 0 -16
4 -14 8 3 4 9 8 14 8 5 0 11 -4 14 -8z m36 -2 c0 -5 -2 -10 -4 -10 -3 0 -8 5
-11 10 -3 6 -1 10 4 10 6 0 11 -4 11 -10z m-123 -52 c2 -17 0 -19 -7 -8 -5 8
-6 18 -4 22 8 12 10 10 11 -14z m79 6 c-1 -8 -6 -17 -12 -21 -5 -4 -6 -4 -2 1
4 5 3 14 -2 21 -7 8 -5 12 4 12 8 0 13 -6 12 -13z m-43 -9 c-3 -9 -8 -14 -10
-11 -3 3 -2 9 2 15 9 16 15 13 8 -4z"/>
<path d="M750 900 c0 -5 5 -10 11 -10 5 0 7 5 4 10 -3 6 -8 10 -11 10 -2 0 -4
-4 -4 -10z"/>
<path d="M810 902 c0 -7 -4 -11 -9 -8 -5 3 -11 -5 -13 -17 -4 -20 -1 -23 26
-22 17 1 37 -4 45 -9 11 -8 13 -8 8 0 -6 10 21 43 30 37 11 -9 14 -1 4 11 -14
16 -33 15 -54 -2 -13 -11 -17 -10 -26 5 -6 11 -11 13 -11 5z m87 -17 c4 -4 3
-5 -3 -2 -7 4 -17 1 -23 -7 -10 -12 -29 -14 -51 -6 -3 1 -9 2 -13 1 -5 -1 -6
3 -2 9 5 8 11 8 20 0 9 -7 16 -6 24 4 13 15 35 16 48 1z"/>
<path d="M950 895 c-8 -9 -8 -15 -2 -15 12 0 26 19 19 26 -2 2 -10 -2 -17 -11z"/>
<path d="M1020 890 c0 -5 10 -15 23 -21 22 -12 22 -12 3 10 -21 23 -26 26 -26
11z"/>
<path d="M594 846 c-8 -14 -21 -23 -28 -20 -8 3 -16 -2 -20 -11 -3 -9 -11 -13
-16 -10 -6 4 -17 1 -25 -5 -9 -7 -15 -8 -15 -2 0 5 -7 12 -15 16 -23 8 -18
-12 6 -24 11 -6 26 -8 33 -3 6 4 3 0 -7 -9 -13 -13 -15 -18 -6 -18 9 -1 6 -6
-6 -13 -11 -7 -21 -19 -23 -27 -2 -9 6 -6 23 10 15 14 29 24 32 22 3 -2 14 10
24 27 10 17 23 32 29 32 5 1 15 2 21 3 11 1 23 56 14 56 -3 0 -12 -11 -21 -24z
m-24 -30 c0 -2 -8 -10 -17 -17 -16 -13 -17 -12 -4 4 13 16 21 21 21 13z m-36
-51 c-4 -8 -11 -12 -16 -9 -6 4 -5 10 3 15 19 12 19 11 13 -6z"/>
<path d="M655 851 c-3 -5 -2 -12 3 -15 5 -3 9 1 9 9 0 17 -3 19 -12 6z"/>
<path d="M550 846 c0 -2 7 -7 16 -10 8 -3 12 -2 9 4 -6 10 -25 14 -25 6z"/>
<path d="M977 793 c-4 -3 -7 -11 -7 -17 0 -6 5 -5 12 2 6 6 9 14 7 17 -3 3 -9
2 -12 -2z"/>
<path d="M1094 781 c-16 -12 -19 -22 -13 -34 10 -16 45 -15 62 2 13 13 -2 34
-20 27 -11 -4 -13 -2 -9 9 7 19 6 18 -20 -4z m46 -22 c0 -5 -3 -9 -7 -10 -5 0
-16 -2 -25 -4 -10 -2 -18 3 -18 10 0 7 11 13 25 13 14 0 25 -4 25 -9z"/>
<path d="M1267 783 c-11 -11 -17 -13 -17 -5 0 13 -26 12 -49 -2 -11 -7 -11
-10 0 -18 11 -7 9 -8 -6 -6 -11 1 -30 -5 -43 -13 -19 -14 -20 -17 -7 -23 9 -3
14 -2 11 3 -3 5 1 14 9 21 17 15 18 10 6 -24 -9 -23 -8 -24 17 -20 26 4 26 3
8 -11 -11 -8 -15 -15 -9 -15 7 0 15 5 18 10 9 14 23 13 28 -2 2 -7 3 -5 2 4
-2 10 0 20 5 23 11 7 20 -22 14 -42 -5 -15 -4 -16 5 -3 8 12 11 12 11 1 0 -8
6 -11 18 -6 41 16 58 15 59 -6 2 -17 -1 -18 -12 -9 -17 14 -45 6 -45 -12 0
-10 3 -9 9 1 10 16 41 8 41 -10 0 -8 -4 -8 -15 1 -10 9 -15 9 -15 1 0 -6 4
-11 10 -11 5 0 7 -6 4 -14 -7 -18 12 -30 22 -15 4 8 3 9 -4 5 -7 -4 -12 -3
-12 3 0 21 19 20 34 -1 9 -12 16 -18 16 -12 0 5 -6 16 -12 23 -11 11 -10 13 2
9 11 -4 15 2 17 20 1 18 -1 21 -8 11 -5 -8 -9 -12 -10 -9 0 3 -2 13 -4 23 -2
12 1 17 9 14 7 -3 13 1 13 9 0 7 -3 11 -7 9 -4 -3 -15 4 -25 15 -18 20 -14 35
7 35 6 0 12 8 14 17 1 13 -4 17 -19 14 -22 -3 -57 10 -68 25 -3 5 -13 1 -22
-8z m-20 -16 c6 -4 15 -3 18 3 5 8 11 8 19 1 7 -6 16 -8 19 -5 4 4 5 -3 2 -15
-3 -14 1 -21 12 -21 9 0 13 6 10 14 -4 10 -1 13 9 9 11 -4 12 -8 3 -19 -9 -11
-8 -19 6 -34 10 -11 15 -23 12 -27 -4 -3 -7 -1 -7 7 0 10 -3 10 -15 0 -8 -7
-15 -9 -15 -6 0 4 -9 2 -20 -4 -15 -8 -21 -6 -30 10 -6 11 -7 20 -3 20 4 0 1
4 -7 9 -8 6 -19 7 -25 3 -18 -12 -55 -9 -55 5 0 7 9 17 21 23 17 9 25 8 42 -7
22 -18 22 -18 4 3 -9 11 -14 24 -10 28 4 4 0 4 -10 0 -9 -3 -17 -2 -17 4 0 11
18 11 37 -1z m123 -141 c0 -3 -4 -8 -10 -11 -5 -3 -10 -1 -10 4 0 6 5 11 10
11 6 0 10 -2 10 -4z"/>
<path d="M1265 760 c-3 -6 -11 -7 -17 -4 -6 4 -3 -5 8 -19 10 -15 24 -27 29
-27 6 0 3 -5 -5 -10 -9 -6 -10 -10 -3 -10 6 0 15 5 18 10 3 6 11 10 17 10 7 0
6 -5 -1 -14 -12 -14 -10 -15 28 -7 2 1 -2 8 -9 16 -7 9 -20 13 -28 10 -10 -4
-13 0 -9 14 6 23 -17 49 -28 31z m19 -21 c-3 -5 -10 -7 -15 -3 -5 3 -7 10 -3
15 3 5 10 7 15 3 5 -3 7 -10 3 -15z"/>
<path d="M1215 729 c-10 -15 3 -25 16 -12 7 7 7 13 1 17 -6 3 -14 1 -17 -5z"/>
<path d="M1350 779 c0 -5 5 -7 10 -4 6 3 10 8 10 11 0 2 -4 4 -10 4 -5 0 -10
-5 -10 -11z"/>
<path d="M670 765 c0 -8 -4 -15 -10 -15 -5 0 -10 -5 -10 -11 0 -8 6 -7 17 2
14 12 16 12 11 -2 -3 -9 -3 -22 2 -29 4 -7 7 5 6 29 0 22 -4 41 -8 41 -5 0 -8
-7 -8 -15z"/>
<path d="M700 765 c0 -8 4 -15 10 -15 5 0 7 7 4 15 -4 8 -8 15 -10 15 -2 0 -4
-7 -4 -15z"/>
<path d="M796 763 c-4 -9 -4 -14 0 -10 4 4 14 1 23 -6 14 -11 15 -10 1 8 -8
11 -15 21 -16 23 -1 2 -5 -5 -8 -15z"/>
<path d="M895 761 c-3 -5 -2 -12 3 -15 5 -3 9 1 9 9 0 17 -3 19 -12 6z"/>
<path d="M980 760 c-8 -5 -10 -10 -5 -10 6 0 17 5 25 10 8 5 11 10 5 10 -5 0
-17 -5 -25 -10z"/>
<path d="M732 738 c2 -8 -4 -12 -15 -10 -17 3 -17 2 0 -17 19 -22 28 -28 18
-11 -4 6 -2 17 5 25 8 9 8 15 0 20 -6 4 -9 1 -8 -7z"/>
<path d="M1000 735 c-7 -9 -11 -17 -9 -20 3 -2 10 5 17 15 14 24 10 26 -8 5z"/>
<path d="M1057 743 c-9 -8 12 -33 27 -33 6 0 3 5 -7 11 -9 6 -15 14 -12 20 7
10 2 12 -8 2z"/>
<path d="M856 727 c3 -10 9 -15 12 -12 3 3 0 11 -7 18 -10 9 -11 8 -5 -6z"/>
<path d="M613 694 c-15 -14 -22 -22 -14 -18 11 5 13 3 8 -12 -7 -19 -7 -19 8
0 8 10 12 23 9 27 -3 5 2 9 10 9 9 0 16 5 16 10 0 15 -6 12 -37 -16z"/>
<path d="M753 705 c0 -8 4 -12 9 -9 5 3 6 10 3 15 -9 13 -12 11 -12 -6z"/>
<path d="M1130 700 c0 -5 5 -10 11 -10 5 0 7 5 4 10 -3 6 -8 10 -11 10 -2 0
-4 -4 -4 -10z"/>
<path d="M455 673 c14 -20 11 -25 -11 -22 -4 0 -11 -5 -15 -13 -7 -11 -11 -11
-17 0 -7 10 -11 10 -21 -1 -9 -12 -8 -16 8 -20 11 -2 24 0 29 5 6 6 18 5 33
-3 46 -25 61 -13 30 25 -7 9 -10 16 -6 16 4 0 2 6 -4 13 -6 8 -9 16 -6 18 2 3
-5 5 -15 5 -18 0 -18 -2 -5 -23z m39 -55 c-3 -5 -12 -4 -20 3 -7 6 -11 15 -8
21 3 5 12 4 20 -3 7 -6 11 -15 8 -21z"/>
<path d="M650 680 c0 -5 5 -10 10 -10 6 0 10 5 10 10 0 6 -4 10 -10 10 -5 0
-10 -4 -10 -10z"/>
<path d="M637 654 c5 -12 3 -15 -6 -9 -10 6 -11 3 -1 -14 9 -18 30 -21 30 -5
0 3 -5 2 -11 -2 -7 -4 -9 0 -5 14 4 11 2 23 -3 27 -7 4 -8 -1 -4 -11z"/>
<path d="M706 658 c3 -5 0 -17 -8 -26 -11 -15 -11 -15 3 -5 9 7 18 11 20 8 3
-2 5 4 5 14 0 10 -6 18 -13 18 -7 0 -10 -4 -7 -9z"/>
<path d="M810 661 c0 -6 4 -13 10 -16 6 -3 7 1 4 9 -7 18 -14 21 -14 7z"/>
<path d="M575 650 c3 -5 8 -10 11 -10 2 0 4 5 4 10 0 6 -5 10 -11 10 -5 0 -7
-4 -4 -10z"/>
<path d="M1210 639 c0 -5 5 -7 10 -4 6 3 10 8 10 11 0 2 -4 4 -10 4 -5 0 -10
-5 -10 -11z"/>
<path d="M603 628 c6 -17 -3 -23 -26 -19 -5 1 -6 -3 -2 -9 8 -13 35 -13 35 1
0 5 6 7 13 3 7 -5 7 -1 -3 12 -22 29 -24 30 -17 12z"/>
<path d="M1236 632 c-2 -4 4 -8 14 -8 10 0 16 4 14 8 -3 4 -9 8 -14 8 -5 0
-11 -4 -14 -8z"/>
<path d="M667 616 c-3 -8 -2 -18 3 -21 13 -8 20 9 11 24 -6 10 -10 9 -14 -3z"/>
<path d="M754 612 c3 -5 0 -13 -6 -15 -9 -4 -10 -6 -1 -6 17 -1 25 16 12 25
-7 4 -9 3 -5 -4z"/>
<path d="M1259 608 c-5 -18 -6 -38 -1 -34 7 8 12 36 6 36 -2 0 -4 -1 -5 -2z"/>
<path d="M1346 562 c-3 -5 1 -9 9 -9 8 0 12 4 9 9 -3 4 -7 8 -9 8 -2 0 -6 -4
-9 -8z"/>
<path d="M1240 540 c-8 -5 -10 -10 -5 -10 6 0 17 5 25 10 8 5 11 10 5 10 -5 0
-17 -5 -25 -10z"/>
<path d="M835 481 c-3 -5 -2 -12 3 -15 5 -3 9 1 9 9 0 17 -3 19 -12 6z"/>
<path d="M1333 455 c0 -8 4 -12 9 -9 5 3 6 10 3 15 -9 13 -12 11 -12 -6z"/>
<path d="M1353 405 c0 -8 4 -12 9 -9 5 3 6 10 3 15 -9 13 -12 11 -12 -6z"/>
<path d="M1310 340 c0 -5 5 -10 11 -10 5 0 7 5 4 10 -3 6 -8 10 -11 10 -2 0
-4 -4 -4 -10z"/>
<path d="M916 835 c-3 -10 -3 -22 3 -28 12 -12 20 4 11 27 -6 19 -7 19 -14 1z"/>
<path d="M1044 359 c-3 -6 -1 -16 6 -22 10 -9 11 -9 6 1 -4 6 -2 12 3 12 6 0
11 5 11 10 0 13 -17 13 -26 -1z"/>
</g>
</svg>
