<?xml version="1.0" standalone="no"?>
<!DOCTYPE svg PUBLIC "-//W3C//DTD SVG 20010904//EN"
 "http://www.w3.org/TR/2001/REC-SVG-20010904/DTD/svg10.dtd">
<svg version="1.0" xmlns="http://www.w3.org/2000/svg"
 width="14400.000000pt" height="7200.000000pt" viewBox="0 0 14400.000000 7200.000000"
 preserveAspectRatio="xMidYMid meet">
<metadata>
Created by potrace 1.12, written by Peter Selinger 2001-2015
</metadata>
<g transform="translate(0.000000,7200.000000) scale(7.200000,-7.200000)"
fill="#000000" stroke="none">
<path d="M0 500 l0 -500 1000 0 1000 0 0 500 0 500 -1000 0 -1000 0 0 -500z
m610 220 c0 -5 -5 -10 -11 -10 -5 0 -7 5 -4 10 3 6 8 10 11 10 2 0 4 -4 4 -10z
m400 -25 c0 -5 -5 -3 -10 5 -5 8 -10 20 -10 25 0 6 5 3 10 -5 5 -8 10 -19 10
-25z m374 7 c3 -5 -1 -9 -9 -9 -8 0 -12 4 -9 9 3 4 7 8 9 8 2 0 6 -4 9 -8z
m-324 -16 c0 -2 -8 -10 -17 -17 -16 -13 -17 -12 -4 4 13 16 21 21 21 13z m307
-31 c0 -8 -4 -12 -9 -9 -5 3 -6 10 -3 15 9 13 12 11 12 -6z m-422 -4 c3 -5 2
-12 -3 -15 -5 -3 -9 1 -9 9 0 17 3 19 12 6z m-139 -26 c-1 -8 -5 -17 -8 -21
-5 -4 -4 16 1 34 3 9 9 -1 7 -13z m104 -1 c0 -8 -19 -13 -24 -6 -3 5 1 9 9 9
8 0 15 -2 15 -3z m90 -20 c0 -8 -19 -13 -24 -6 -3 5 1 9 9 9 8 0 15 -2 15 -3z
m-310 -69 c0 -5 -5 -3 -10 5 -5 8 -10 20 -10 25 0 6 5 3 10 -5 5 -8 10 -19 10
-25z m64 7 c3 -5 -1 -9 -9 -9 -8 0 -12 4 -9 9 3 4 7 8 9 8 2 0 6 -4 9 -8z
m276 -104 c0 20 16 14 30 -13 7 -13 17 -22 22 -19 13 8 29 -6 21 -19 -8 -12
-9 -18 -11 -53 -1 -12 -13 -33 -27 -48 -13 -14 -25 -29 -25 -31 0 -20 -41 -61
-78 -76 -38 -17 -45 -17 -58 -4 -19 19 -20 80 -1 125 8 19 14 56 13 83 -1 33
3 47 12 47 7 0 11 -3 8 -8 -2 -4 6 -12 19 -18 20 -10 22 -9 17 10 -5 19 -5 19
18 -2 13 -12 27 -22 32 -22 14 0 9 30 -7 36 -8 4 -12 11 -9 16 4 6 10 5 15 -3
6 -10 9 -11 9 -1z m80 -20 c0 -4 -11 -2 -25 4 -14 6 -25 15 -25 19 0 4 11 2
25 -4 14 -7 25 -15 25 -19z m-323 -21 c-3 -7 4 -19 15 -26 11 -7 17 -8 14 -2
-4 5 4 13 16 17 13 4 25 10 28 14 12 18 27 -17 17 -40 -6 -14 -9 -33 -8 -42 2
-13 -6 -16 -41 -15 -24 1 -42 -2 -40 -6 1 -4 2 -12 2 -18 0 -5 5 -7 11 -3 6 4
10 -1 8 -12 -3 -21 20 -75 36 -86 6 -5 5 -8 -4 -8 -7 0 -11 -6 -7 -15 3 -8 1
-14 -4 -12 -5 1 -16 -7 -25 -18 -16 -20 -16 -20 -12 3 5 21 -7 28 -37 23 -5
-1 -6 7 -3 19 3 11 0 23 -6 27 -7 3 -8 2 -4 -2 4 -5 -3 -15 -15 -22 -13 -7
-17 -12 -10 -13 7 0 10 -5 7 -10 -4 -6 7 -13 23 -16 18 -4 32 -14 35 -25 3
-11 1 -17 -4 -13 -5 3 -9 0 -9 -5 0 -6 -3 -10 -7 -10 -5 1 -10 0 -13 -1 -23
-9 -40 -6 -40 7 0 9 -6 13 -13 10 -8 -3 -14 1 -14 8 0 7 11 11 28 10 16 -1 26
1 23 6 -3 5 -11 9 -18 9 -17 0 -13 39 5 51 10 6 10 9 2 9 -21 0 -15 30 13 62
14 17 23 37 20 44 -3 8 -1 14 4 14 6 0 10 5 10 11 0 5 -4 7 -10 4 -5 -3 -10 0
-10 8 0 8 -7 18 -16 21 -13 5 -14 9 -4 21 7 8 21 15 31 15 11 0 19 5 19 10 0
6 3 10 6 10 3 0 4 -6 1 -13z m-52 -77 c3 -5 -1 -10 -10 -10 -9 0 -13 5 -10 10
3 6 8 10 10 10 2 0 7 -4 10 -10z m-17 -25 c3 -3 0 -5 -6 -5 -19 0 -14 -20 6
-21 14 0 14 -2 -3 -9 -11 -5 -16 -9 -12 -9 11 -1 -12 -41 -23 -41 -6 0 -10 5
-10 11 0 5 4 8 9 5 5 -3 11 1 15 9 3 8 1 17 -4 20 -4 3 -10 0 -12 -7 -3 -7 -7
-5 -11 6 -4 9 -3 15 2 11 15 -9 24 15 11 30 -10 12 -8 13 10 10 13 -2 25 -7
28 -10z m107 -45 c-3 -6 1 -13 9 -16 9 -3 13 -10 10 -16 -3 -5 -12 -1 -19 9
-12 16 -11 33 1 33 3 0 2 -5 -1 -10z m40 -50 c-3 -5 -11 -10 -16 -10 -6 0 -7
5 -4 10 3 6 11 10 16 10 6 0 7 -4 4 -10z m-175 -60 c0 -5 -5 -10 -11 -10 -5 0
-7 5 -4 10 3 6 8 10 11 10 2 0 4 -4 4 -10z"/>
<path d="M742 371 c-9 -5 -4 -8 16 -7 17 1 28 4 25 9 -6 9 -25 9 -41 -2z"/>
<path d="M750 225 c0 -2 6 -8 13 -14 10 -8 14 -7 14 2 0 8 -6 14 -14 14 -7 0
-13 -1 -13 -2z"/>
</g>
</svg>
