<?xml version="1.0" standalone="no"?>
<!DOCTYPE svg PUBLIC "-//W3C//DTD SVG 20010904//EN"
 "http://www.w3.org/TR/2001/REC-SVG-20010904/DTD/svg10.dtd">
<svg version="1.0" xmlns="http://www.w3.org/2000/svg"
 width="14400.000000pt" height="7200.000000pt" viewBox="0 0 14400.000000 7200.000000"
 preserveAspectRatio="xMidYMid meet">
<metadata>
Created by potrace 1.12, written by Peter Selinger 2001-2015
</metadata>
<g transform="translate(0.000000,7200.000000) scale(7.200000,-7.200000)"
fill="#000000" stroke="none">
<path d="M0 500 l0 -500 1000 0 1000 0 0 500 0 500 -1000 0 -1000 0 0 -500z
m764 118 c-4 -7 -2 -8 4 -4 6 3 16 -3 22 -14 6 -11 7 -20 3 -20 -4 0 -1 -5 7
-11 13 -9 13 -10 0 -6 -8 2 -14 10 -12 16 3 15 -10 14 -34 -4 -19 -14 -18 -14
2 -10 23 4 68 -30 59 -45 -3 -4 -1 -10 5 -12 5 -1 12 -34 15 -72 4 -53 3 -67
-7 -64 -9 4 -14 -6 -15 -30 -1 -19 -6 -38 -12 -41 -5 -3 -13 -19 -16 -34 -4
-15 -11 -27 -17 -27 -5 0 -6 6 -3 13 4 6 0 4 -7 -5 -8 -9 -21 -16 -29 -15 -19
3 -68 39 -49 36 8 -1 24 -1 35 0 19 2 19 3 -2 13 -15 7 -23 20 -23 35 0 13 4
22 9 19 5 -4 7 4 3 16 -5 21 -4 22 11 9 15 -12 17 -12 11 3 -5 13 -14 16 -30
12 -27 -7 -29 10 -4 32 11 10 11 12 1 6 -9 -5 -12 -3 -7 4 4 7 14 12 23 12 14
0 14 3 -2 20 -11 12 -13 20 -6 20 7 0 10 4 7 9 -4 5 0 12 6 14 8 3 6 6 -4 6
-10 1 -18 9 -18 18 0 15 -2 15 -14 -2 -8 -11 -11 -26 -8 -34 3 -9 1 -12 -6 -7
-6 3 -14 1 -18 -5 -4 -8 -3 -9 4 -5 7 4 12 1 12 -8 0 -8 3 -22 6 -30 5 -13 2
-15 -12 -9 -17 6 -17 5 -5 -11 11 -13 11 -16 2 -14 -8 2 -15 -5 -16 -15 -2
-13 1 -17 11 -13 19 7 18 -21 -1 -40 -13 -14 -15 -13 -15 5 0 15 -5 19 -17 15
-14 -5 -15 -4 -4 4 11 8 10 11 -4 19 -16 9 -16 11 0 26 15 16 15 17 -2 17 -10
0 -14 4 -8 8 15 10 38 42 32 42 -3 0 -13 -7 -21 -16 -9 -8 -16 -11 -16 -7 0 5
11 19 25 31 15 13 22 28 19 37 -7 18 -30 14 -26 -4 1 -6 -2 -11 -8 -11 -14 0
-12 12 6 35 16 21 17 22 62 24 21 1 24 3 12 11 -8 5 -22 7 -32 4 -9 -2 -20 0
-23 7 -6 8 -10 7 -17 -2 -8 -11 -9 -11 -5 1 2 9 13 14 25 12 12 -2 22 2 22 8
0 6 -4 9 -9 6 -5 -3 -11 0 -14 8 -4 10 0 12 14 9 10 -3 19 -9 19 -13 0 -4 11
-7 25 -7 13 0 22 3 19 8 -3 5 3 9 13 9 14 0 15 2 4 9 -11 7 -9 10 10 13 30 5
41 0 33 -14z m-304 -132 c0 -2 -8 -10 -17 -17 -16 -13 -17 -12 -4 4 13 16 21
21 21 13z m230 -40 c0 -3 -4 -8 -10 -11 -5 -3 -10 -1 -10 4 0 6 5 11 10 11 6
0 10 -2 10 -4z m-185 -46 c3 -5 1 -10 -4 -10 -6 0 -11 5 -11 10 0 6 2 10 4 10
3 0 8 -4 11 -10z m785 -360 c0 -5 -2 -10 -4 -10 -3 0 -8 5 -11 10 -3 6 -1 10
4 10 6 0 11 -4 11 -10z"/>
<path d="M737 607 c-3 -8 1 -14 8 -14 7 0 11 6 8 14 -3 7 -6 13 -8 13 -2 0 -5
-6 -8 -13z"/>
<path d="M640 526 c0 -2 7 -6 15 -10 8 -3 15 -1 15 4 0 6 -7 10 -15 10 -8 0
-15 -2 -15 -4z"/>
<path d="M738 513 c-3 -12 0 -20 8 -20 16 0 17 6 5 25 -6 11 -9 9 -13 -5z"/>
<path d="M744 418 c-5 -8 -2 -9 9 -5 10 4 20 0 26 -11 5 -9 13 -13 17 -9 4 4
-1 14 -12 22 -23 18 -31 18 -40 3z"/>
<path d="M735 370 c4 -6 11 -8 16 -5 5 4 9 -2 9 -11 0 -13 3 -15 11 -7 15 15
3 33 -22 33 -11 0 -17 -5 -14 -10z"/>
<path d="M790 371 c0 -6 4 -13 10 -16 6 -3 7 1 4 9 -7 18 -14 21 -14 7z"/>
<path d="M704 252 c4 -3 14 -7 22 -8 9 -1 13 0 10 4 -4 3 -14 7 -22 8 -9 1
-13 0 -10 -4z"/>
</g>
</svg>
