<?xml version="1.0" standalone="no"?>
<!DOCTYPE svg PUBLIC "-//W3C//DTD SVG 20010904//EN"
 "http://www.w3.org/TR/2001/REC-SVG-20010904/DTD/svg10.dtd">
<svg version="1.0" xmlns="http://www.w3.org/2000/svg"
 width="14400.000000pt" height="7200.000000pt" viewBox="0 0 14400.000000 7200.000000"
 preserveAspectRatio="xMidYMid meet">
<metadata>
Created by potrace 1.12, written by Peter Selinger 2001-2015
</metadata>
<g transform="translate(0.000000,7200.000000) scale(7.200000,-7.200000)"
fill="#000000" stroke="none">
<path d="M1399 733 c-1 -148 -1 -272 0 -276 1 -5 -3 -6 -8 -3 -5 3 -13 0 -18
-7 -14 -19 -10 -52 7 -52 13 0 15 -30 18 -197 l2 -198 300 0 300 0 0 500 0
500 -300 0 -300 0 -1 -267z"/>
<path d="M435 969 c-4 -6 -5 -12 -2 -15 2 -3 7 2 10 11 7 17 1 20 -8 4z"/>
<path d="M596 967 c3 -10 9 -15 12 -12 3 3 0 11 -7 18 -10 9 -11 8 -5 -6z"/>
<path d="M138 960 c-2 -6 -34 -13 -71 -17 l-67 -6 0 -468 1 -468 461 -1 c411
0 459 1 448 15 -16 20 -6 19 14 -1 15 -14 18 -14 41 4 15 12 21 23 15 27 -5 3
-10 1 -10 -5 0 -6 -5 -8 -10 -5 -8 5 -7 12 2 23 12 15 11 15 -4 4 -14 -12 -19
-10 -34 14 -21 31 -26 66 -10 76 8 6 7 8 -1 8 -7 0 -10 6 -7 14 3 7 -3 17 -13
20 -17 7 -17 8 1 22 23 16 14 19 -14 4 -15 -8 -24 -5 -43 14 -18 18 -21 28
-14 35 8 8 8 14 -1 23 -17 17 -15 48 3 48 8 0 22 -11 31 -25 15 -23 34 -26 34
-4 0 6 -4 7 -10 4 -14 -9 -12 8 3 24 8 10 8 12 0 7 -20 -11 -41 48 -21 60 7 5
8 2 3 -6 -5 -8 -3 -11 6 -8 8 3 13 10 12 16 -2 7 10 5 32 -4 19 -7 36 -10 39
-6 14 23 -15 122 -36 122 -3 0 -14 7 -22 16 -9 9 -22 17 -29 18 -6 1 -19 6
-27 11 -19 12 -102 13 -117 2 -7 -5 -13 -6 -13 -3 0 4 -16 -9 -36 -28 -22 -21
-38 -47 -41 -68 -3 -18 -11 -48 -19 -67 -8 -18 -11 -37 -8 -42 3 -5 1 -9 -4
-9 -6 0 -12 -10 -15 -22 -10 -37 -9 -42 4 -47 7 -2 9 1 4 9 -5 9 -4 11 4 6 17
-11 2 -28 -20 -21 -15 5 -17 3 -12 -11 5 -13 3 -16 -10 -11 -9 3 -17 2 -17 -3
0 -6 -5 -10 -11 -10 -5 0 -7 6 -3 13 4 6 -3 2 -16 -11 -12 -13 -28 -21 -36
-18 -8 3 -14 2 -14 -2 0 -10 -62 -9 -78 1 -7 5 -10 12 -8 16 3 4 -1 8 -9 8 -8
0 -13 -3 -10 -5 3 -3 -2 -10 -11 -17 -14 -10 -14 -13 3 -26 16 -13 17 -12 5 3
-12 15 -11 17 7 15 25 -2 27 -10 6 -27 -12 -10 -18 -10 -30 0 -8 7 -15 9 -15
4 0 -5 -4 -3 -9 5 -6 10 -3 20 12 33 22 19 22 19 -5 3 -26 -16 -27 -18 -12
-46 16 -32 26 -39 18 -11 -5 14 -4 14 4 2 12 -16 6 -33 -9 -25 -5 4 -9 3 -9
-2 0 -4 -15 -24 -33 -43 -17 -19 -32 -37 -32 -40 -1 -3 -6 -15 -14 -28 -11
-20 -15 -21 -29 -10 -13 11 -15 11 -9 -4 4 -12 2 -15 -8 -12 -8 3 -11 12 -9
19 3 7 1 16 -4 19 -5 3 -8 -6 -6 -19 1 -14 -2 -23 -7 -20 -10 7 -8 33 5 54 5
8 3 16 -5 22 -16 10 -8 12 15 3 9 -3 14 -10 11 -14 -3 -4 4 -19 15 -31 11 -13
19 -19 20 -12 0 6 -5 15 -10 18 -6 4 -7 11 -4 17 4 6 0 15 -7 20 -12 8 -11 9
1 5 8 -2 16 -13 18 -25 2 -12 7 -20 12 -17 5 3 7 12 3 20 -3 9 1 15 8 15 10 0
11 3 3 8 -9 5 -8 11 2 20 9 8 14 9 14 2 0 -15 34 19 36 37 1 7 -4 19 -11 27
-8 7 -11 16 -8 20 4 3 2 6 -4 6 -5 0 -10 -15 -10 -32 0 -18 2 -27 5 -20 5 17
19 15 19 -3 0 -19 -26 -28 -33 -10 -6 14 -34 10 -34 -6 0 -4 8 -5 18 -2 15 6
15 5 3 -11 -14 -17 -16 -17 -29 1 -14 17 -14 17 -8 0 4 -13 2 -17 -6 -14 -7 2
-11 13 -10 23 3 15 1 16 -9 7 -10 -10 -10 -15 1 -28 7 -8 9 -15 4 -15 -21 1
-32 17 -31 47 1 17 4 30 8 28 9 -6 5 68 -5 84 -7 10 -6 12 4 6 10 -6 12 -4 7
8 -3 10 -3 17 1 17 4 0 7 17 6 38 -1 20 2 43 8 50 7 8 7 12 0 12 -7 0 -8 10
-2 29 6 21 5 31 -3 35 -7 2 -4 5 5 5 9 1 20 5 23 11 3 6 -1 7 -9 4 -16 -6 -22
7 -9 20 4 4 8 40 9 81 1 40 4 77 6 82 2 4 5 24 7 43 2 19 8 41 14 49 9 11 9
13 0 8 -15 -9 -7 71 8 90 6 7 8 20 5 30 -8 24 -93 96 -98 83z m-108 -400 c0
-5 -2 -10 -4 -10 -3 0 -8 5 -11 10 -3 6 -1 10 4 10 6 0 11 -4 11 -10z m714
-220 c-8 -8 -29 -15 -46 -16 -24 -1 -28 0 -15 7 9 5 21 17 27 27 9 14 10 14 5
-5 -7 -26 0 -29 21 -9 9 9 10 17 4 21 -5 3 -10 11 -10 18 0 6 6 2 14 -9 13
-16 13 -21 0 -34z m-49 21 c-9 -8 -36 -10 -30 -2 2 4 11 8 20 8 8 0 13 -3 10
-6z m85 -37 c0 -8 -19 -13 -24 -6 -3 5 1 9 9 9 8 0 15 -2 15 -3z m-156 -20 c3
-8 2 -12 -4 -9 -6 3 -10 10 -10 16 0 14 7 11 14 -7z m57 -31 c8 -9 9 -14 3
-10 -13 7 -27 -19 -19 -33 3 -5 0 -12 -6 -16 -8 -5 -9 -3 -4 6 5 9 1 11 -16 6
-13 -3 -18 -3 -11 0 6 3 9 11 6 16 -4 7 -2 8 4 4 12 -7 35 27 25 38 -3 3 -4 6
-1 6 3 0 12 -8 19 -17z m135 -53 c0 -9 -7 -17 -16 -16 -8 1 -14 -5 -12 -12 1
-8 -2 -11 -8 -7 -8 5 -6 13 4 24 9 10 14 20 11 23 -3 2 1 5 8 5 7 0 13 -8 13
-17z m-89 -52 c4 -28 -6 -18 -12 12 -2 12 -1 20 2 16 4 -4 8 -16 10 -28z m168
-5 c-2 -10 -4 -21 -4 -25 -1 -5 -6 -8 -12 -8 -8 0 -8 5 1 15 11 13 8 18 -10
17 -3 0 -6 8 -6 18 0 14 4 16 17 9 10 -5 16 -17 14 -26z m60 -132 c3 -5 1 -12
-5 -16 -5 -3 -10 1 -10 10 0 9 -4 13 -10 10 -5 -3 -10 -1 -10 5 0 6 -5 8 -12
4 -7 -4 -8 -3 -4 4 8 13 39 1 51 -17z"/>
<path d="M250 899 c0 -5 5 -7 10 -4 6 3 10 8 10 11 0 2 -4 4 -10 4 -5 0 -10
-5 -10 -11z"/>
<path d="M275 860 c-3 -5 -1 -10 4 -10 6 0 11 5 11 10 0 6 -2 10 -4 10 -3 0
-8 -4 -11 -10z"/>
<path d="M253 625 c0 -8 4 -12 9 -9 5 3 6 10 3 15 -9 13 -12 11 -12 -6z"/>
<path d="M290 439 c0 -5 5 -7 10 -4 6 3 10 8 10 11 0 2 -4 4 -10 4 -5 0 -10
-5 -10 -11z"/>
<path d="M196 421 c-3 -5 2 -15 12 -22 15 -12 16 -12 5 2 -7 9 -10 19 -6 22 3
4 4 7 0 7 -3 0 -8 -4 -11 -9z"/>
<path d="M265 400 c-3 -6 1 -7 9 -4 18 7 21 14 7 14 -6 0 -13 -4 -16 -10z"/>
<path d="M333 335 c0 -8 4 -12 9 -9 5 3 6 10 3 15 -9 13 -12 11 -12 -6z"/>
<path d="M379 348 c-5 -16 -4 -46 2 -42 4 2 7 13 6 24 -1 17 -5 26 -8 18z"/>
<path d="M415 340 c-3 -5 -1 -10 4 -10 6 0 11 5 11 10 0 6 -2 10 -4 10 -3 0
-8 -4 -11 -10z"/>
<path d="M499 348 c-5 -18 -6 -38 -1 -34 7 8 12 36 6 36 -2 0 -4 -1 -5 -2z"/>
<path d="M187 319 c7 -7 15 -10 18 -7 3 3 -2 9 -12 12 -14 6 -15 5 -6 -5z"/>
<path d="M226 302 c-3 -5 1 -9 9 -9 8 0 15 4 15 9 0 4 -4 8 -9 8 -6 0 -12 -4
-15 -8z"/>
<path d="M833 293 c5 -6 6 -17 2 -22 -3 -6 4 -21 16 -33 18 -19 21 -20 15 -4
-4 13 -2 17 8 13 8 -3 17 0 19 7 4 10 -1 12 -15 8 -16 -4 -19 -2 -13 9 5 8 5
11 0 7 -4 -4 -15 1 -24 10 -9 10 -12 12 -8 5z"/>
<path d="M293 285 c0 -7 3 -14 6 -13 19 2 24 -4 11 -13 -12 -8 -12 -10 -1 -7
8 2 15 12 17 22 1 10 0 15 -3 12 -4 -3 -11 -1 -18 4 -8 7 -12 5 -12 -5z"/>
<path d="M414 278 c-4 -5 -3 -12 0 -15 3 -4 6 -1 6 6 0 7 4 10 9 6 5 -3 12 -2
15 3 3 5 -2 9 -10 9 -8 0 -17 -4 -20 -9z"/>
<path d="M260 240 c0 -6 7 -10 15 -10 8 0 15 2 15 4 0 2 -7 6 -15 10 -8 3 -15
1 -15 -4z"/>
<path d="M400 240 c-9 -6 -10 -10 -3 -10 6 0 15 5 18 10 8 12 4 12 -15 0z"/>
<path d="M1060 240 c-9 -6 -10 -10 -3 -10 6 0 15 5 18 10 8 12 4 12 -15 0z"/>
<path d="M236 227 c3 -10 9 -15 12 -12 3 3 0 11 -7 18 -10 9 -11 8 -5 -6z"/>
<path d="M197 223 c-3 -5 -1 -17 4 -28 6 -17 7 -16 6 8 -1 28 -3 32 -10 20z"/>
<path d="M221 204 c0 -11 3 -14 6 -6 3 7 2 16 -1 19 -3 4 -6 -2 -5 -13z"/>
<path d="M1003 183 c5 -39 52 -160 68 -178 7 -6 13 -5 19 5 5 8 5 17 1 20 -5
3 -11 15 -15 28 -4 12 -12 19 -18 16 -7 -5 -8 -2 -3 6 11 18 13 60 3 54 -4 -3
-8 6 -8 20 0 14 -4 26 -9 26 -5 0 -13 9 -16 20 -11 35 -27 22 -22 -17z"/>
<path d="M227 175 c-11 -7 -26 -11 -35 -8 -14 4 -14 3 -3 -5 15 -11 61 4 61
20 0 10 -1 10 -23 -7z"/>
<path d="M1095 140 c-3 -5 -1 -10 4 -10 6 0 11 5 11 10 0 6 -2 10 -4 10 -3 0
-8 -4 -11 -10z"/>
<path d="M1135 140 c3 -5 8 -10 11 -10 2 0 4 5 4 10 0 6 -5 10 -11 10 -5 0 -7
-4 -4 -10z"/>
<path d="M915 123 c3 -26 16 -53 25 -53 8 0 8 8 -5 48 -9 26 -23 30 -20 5z"/>
<path d="M1130 79 c0 -5 5 -7 10 -4 6 3 10 8 10 11 0 2 -4 4 -10 4 -5 0 -10
-5 -10 -11z"/>
<path d="M1115 20 c3 -5 8 -10 11 -10 2 0 4 5 4 10 0 6 -5 10 -11 10 -5 0 -7
-4 -4 -10z"/>
<path d="M975 10 c-3 -6 1 -7 9 -4 18 7 21 14 7 14 -6 0 -13 -4 -16 -10z"/>
</g>
</svg>
