<?xml version="1.0" standalone="no"?>
<!DOCTYPE svg PUBLIC "-//W3C//DTD SVG 20010904//EN"
 "http://www.w3.org/TR/2001/REC-SVG-20010904/DTD/svg10.dtd">
<svg version="1.0" xmlns="http://www.w3.org/2000/svg"
 width="14400.000000pt" height="7200.000000pt" viewBox="0 0 14400.000000 7200.000000"
 preserveAspectRatio="xMidYMid meet">
<metadata>
Created by potrace 1.12, written by Peter Selinger 2001-2015
</metadata>
<g transform="translate(0.000000,7200.000000) scale(7.200000,-7.200000)"
fill="#000000" stroke="none">
<path d="M0 501 l0 -500 591 0 c461 -1 595 2 607 11 9 8 13 8 9 2 -5 -9 99
-12 393 -13 l400 -2 0 501 0 500 -300 0 c-314 0 -305 1 -301 -42 1 -10 -4 -18
-11 -18 -10 0 -9 -3 2 -10 8 -5 11 -12 7 -16 -3 -4 -13 -1 -21 5 -17 14 -10
44 8 34 6 -4 5 1 -3 10 -9 11 -10 17 -2 17 6 0 11 4 11 8 0 5 -7 9 -15 9 -8 0
-11 -5 -8 -10 4 -6 -1 -8 -11 -4 -26 10 -38 -1 -26 -24 6 -11 15 -17 20 -14 6
3 7 -1 4 -10 -6 -14 -8 -14 -24 0 -10 9 -17 26 -16 39 3 21 -1 22 -50 23 -55
0 -71 -12 -52 -38 8 -11 9 -11 4 3 -3 10 -1 20 4 23 5 3 7 -8 5 -25 -3 -18 0
-28 5 -25 6 4 10 1 10 -4 0 -6 4 -11 10 -11 12 0 9 22 -5 33 -6 5 -2 6 9 3 14
-5 17 -2 12 11 -6 17 -5 16 8 0 14 -18 14 -18 18 0 3 15 5 15 10 -5 4 -14 2
-20 -4 -15 -7 4 -8 1 -3 -8 7 -12 6 -12 -7 -1 -11 9 -18 10 -23 2 -3 -5 1 -10
9 -10 9 0 16 -4 16 -10 0 -5 -4 -10 -10 -10 -5 0 -13 0 -17 -1 -9 0 -26 -37
-27 -58 -1 -17 -26 -28 -26 -12 0 6 5 11 11 11 5 0 7 5 4 10 -10 16 -27 0 -22
-21 8 -31 -2 -22 -18 18 -8 20 -18 33 -22 29 -4 -3 -1 -12 5 -18 7 -7 12 -19
11 -27 0 -11 -2 -12 -6 -3 -2 6 -9 10 -14 6 -5 -3 -9 5 -9 18 0 17 -6 24 -22
25 -20 2 -21 0 -8 -10 24 -19 24 -40 1 -27 -26 13 -34 27 -21 35 5 3 10 11 10
17 0 6 -6 6 -15 -2 -9 -7 -14 -19 -11 -27 4 -9 1 -11 -6 -7 -6 4 -8 3 -4 -4 3
-6 2 -13 -4 -17 -6 -4 -7 -11 -4 -17 4 -6 2 -8 -4 -4 -12 7 -12 46 0 46 4 0 8
4 8 9 0 5 -8 7 -17 5 -10 -3 -30 6 -45 20 -17 17 -28 21 -31 13 -5 -14 18 -39
27 -29 4 3 4 -1 1 -10 -5 -14 -10 -12 -30 8 -13 13 -30 24 -37 24 -7 -1 -2
-10 11 -21 13 -11 21 -22 18 -25 -3 -3 -14 5 -26 17 -12 13 -21 18 -21 13 0
-6 -7 -19 -15 -30 -13 -16 -14 -16 -9 -1 5 13 2 16 -12 11 -15 -5 -16 -4 -4 4
8 6 18 8 22 6 8 -5 12 10 8 35 -1 9 4 12 16 7 10 -4 25 0 35 10 24 21 24 34 2
34 -15 0 -16 2 -3 10 16 10 36 -12 26 -29 -3 -4 4 -17 16 -27 20 -19 21 -19
13 6 -4 14 -4 22 0 18 5 -4 15 -2 24 4 13 10 14 10 4 -2 -15 -17 -17 -40 -3
-40 6 0 10 7 10 15 0 8 4 15 10 15 5 0 7 6 5 13 -8 19 33 41 51 26 11 -9 14
-8 14 2 0 9 5 7 12 -5 8 -15 8 -21 0 -24 -7 -2 -10 -8 -7 -12 3 -5 12 -7 20
-4 11 5 12 11 4 26 -13 24 -5 35 15 19 10 -9 15 -8 19 2 4 10 -11 13 -64 14
-37 0 -66 -4 -63 -9 5 -7 -10 -12 -28 -9 -5 0 -8 -3 -8 -7 0 -5 -6 -9 -14 -9
-8 0 -12 6 -9 13 2 7 13 11 24 9 10 -2 19 0 19 6 0 5 -11 9 -25 9 -14 0 -25
-6 -25 -12 0 -9 -3 -10 -8 -2 -10 15 -314 15 -324 0 -5 -7 -8 -7 -8 -1 0 6
-14 12 -31 13 -17 1 -28 -2 -25 -7 4 -5 2 -13 -4 -16 -6 -4 -9 -1 -8 7 2 10
-54 14 -294 16 l-298 3 0 -500z m644 481 c3 -5 -1 -9 -9 -9 -8 0 -12 4 -9 9 3
4 7 8 9 8 2 0 6 -4 9 -8z m131 -12 c3 0 3 5 -1 12 -4 7 -3 8 4 4 6 -4 9 -13 6
-21 -5 -12 -9 -12 -30 2 -29 18 -32 28 -5 13 11 -5 22 -10 26 -10z m85 4 c0
-2 -7 -4 -15 -4 -8 0 -15 4 -15 10 0 5 7 7 15 4 8 -4 15 -8 15 -10z m26 -8 c0
-14 -3 -23 -7 -20 -6 3 -6 22 0 42 3 10 7 -2 7 -22z m46 -15 c-5 -14 -4 -14
14 -1 17 14 18 14 6 -2 -8 -9 -20 -14 -28 -11 -8 3 -12 8 -10 11 3 3 0 12 -7
20 -9 13 -9 14 1 8 7 -4 12 -2 12 6 0 10 2 10 9 -1 5 -8 6 -21 3 -30z m438 14
c0 -11 -29 -11 -33 -1 -4 10 1 12 14 9 10 -3 19 -7 19 -8z m-846 -3 c3 -5 -1
-9 -9 -9 -8 0 -12 4 -9 9 3 4 7 8 9 8 2 0 6 -4 9 -8z m206 -2 c0 -4 -6 -12
-13 -18 -10 -8 -13 -6 -13 7 0 10 6 18 13 18 7 0 13 -4 13 -7z m-60 -20 c0 -5
-2 -10 -4 -10 -3 0 -8 5 -11 10 -3 6 -1 10 4 10 6 0 11 -4 11 -10z m79 -26
c-12 -16 -12 -17 3 -11 11 4 19 0 23 -13 6 -19 35 -18 35 2 0 5 -4 7 -9 3 -15
-8 -24 14 -12 29 6 7 8 16 4 19 -3 4 -1 7 5 7 15 0 16 -17 2 -25 -5 -3 -10
-11 -10 -16 0 -6 5 -7 10 -4 6 3 13 -1 16 -9 3 -9 10 -16 16 -16 5 0 6 5 2 12
-4 7 -3 8 5 4 6 -4 9 -12 6 -17 -4 -5 -1 -9 5 -9 7 0 10 -7 7 -15 -4 -8 -2
-17 3 -20 6 -4 10 2 11 12 0 14 2 14 9 -4 5 -13 14 -23 20 -23 18 0 25 -2 43
-12 12 -6 27 -5 47 6 17 8 32 11 35 7 7 -12 50 -8 50 4 0 6 4 16 9 24 8 12 11
12 20 0 6 -8 20 -15 31 -16 33 -3 54 -9 61 -16 10 -9 44 -9 43 1 -3 14 23 72
33 72 5 0 6 -4 3 -10 -3 -5 -1 -10 4 -10 6 0 11 8 11 18 0 10 6 27 14 38 14
18 15 18 21 1 5 -12 14 -16 26 -12 12 4 21 1 25 -9 3 -9 9 -14 13 -12 3 2 7
-22 8 -55 1 -39 -3 -59 -10 -59 -7 0 -6 -4 3 -10 8 -5 11 -12 8 -15 -4 -4 -16
0 -28 8 l-22 15 22 7 c16 5 18 10 10 20 -8 10 -7 14 2 17 11 4 10 8 0 21 -8 9
-11 21 -8 26 4 5 2 12 -4 16 -6 4 -7 12 -3 18 5 9 3 9 -8 0 -15 -12 -19 -13
-45 -13 -10 0 -14 -6 -11 -14 4 -10 -1 -13 -17 -12 -18 2 -22 -2 -22 -18 1
-12 5 -26 8 -32 4 -6 1 -11 -7 -11 -8 0 -11 5 -8 10 3 6 1 7 -6 3 -6 -4 -9
-11 -7 -15 3 -4 -13 -7 -34 -7 -29 0 -36 3 -29 12 7 8 1 11 -21 9 -17 -1 -30
2 -30 9 0 6 -7 3 -14 -7 -10 -13 -16 -15 -21 -7 -5 9 -10 9 -19 0 -8 -8 -7
-13 4 -20 8 -5 13 -10 10 -11 -3 0 -13 -2 -23 -4 -13 -2 -17 1 -13 10 3 8 0
17 -6 21 -7 5 -8 2 -3 -7 7 -11 5 -11 -10 1 -10 8 -16 10 -12 4 3 -6 0 -20 -7
-30 -13 -17 -14 -16 -9 11 4 25 2 27 -7 12 -8 -12 -18 -16 -33 -12 -18 5 -19
4 -7 -5 12 -9 11 -10 -7 -5 -18 5 -23 2 -23 -12 0 -12 3 -14 8 -6 8 13 34 2
31 -13 -4 -24 4 -36 10 -14 4 16 14 25 26 25 11 0 26 4 33 8 7 5 12 3 12 -7 0
-8 3 -23 6 -33 6 -17 6 -17 -7 -1 -15 19 -51 18 -57 0 -3 -11 18 -17 41 -13 4
1 18 -5 30 -14 12 -8 16 -15 9 -15 -9 0 -10 -5 -3 -19 8 -14 6 -23 -9 -36 -11
-10 -20 -13 -20 -7 0 6 5 14 10 17 7 4 7 12 0 24 -5 10 -6 21 -3 25 3 3 1 6
-6 6 -7 0 -10 -7 -6 -19 4 -14 1 -18 -16 -17 -13 1 -23 8 -25 19 -3 20 12 23
19 5 4 -10 6 -10 6 -1 1 7 -8 17 -19 23 -20 11 -21 10 -24 -12 0 -6 -6 -13
-12 -15 -14 -5 -27 25 -17 40 12 19 12 38 1 35 -5 -2 -10 -8 -10 -13 0 -6 -4
-17 -8 -26 -5 -8 -5 -21 0 -29 5 -8 5 -21 0 -30 -6 -11 -5 -21 2 -28 16 -16
33 -15 20 1 -16 19 2 44 21 29 7 -7 18 -8 22 -4 5 4 5 1 1 -6 -5 -7 -13 -10
-20 -5 -7 4 -3 0 7 -9 11 -10 14 -18 8 -18 -7 0 -9 -5 -5 -11 5 -8 10 -6 16 5
5 9 6 21 3 26 -3 6 -2 10 4 10 17 0 23 -20 11 -35 -16 -19 15 -14 40 8 22 19
77 18 85 -1 3 -8 -3 -11 -20 -8 -14 3 -29 7 -34 10 -5 3 -11 -1 -15 -9 -3 -8
-1 -17 4 -20 6 -4 10 -2 10 4 0 6 7 8 15 4 17 -6 11 -18 -8 -18 -7 -1 -11 -6
-9 -13 1 -7 -3 -12 -8 -12 -6 0 -10 8 -8 17 2 11 -5 19 -17 21 -16 4 -17 2 -7
-10 6 -8 9 -17 6 -21 -3 -3 4 -8 15 -12 12 -3 19 -11 15 -16 -3 -6 -12 -5 -21
3 -20 16 -41 19 -50 6 -3 -6 -2 -8 4 -5 5 3 10 0 10 -8 0 -8 -3 -12 -7 -10 -3
2 -12 0 -20 -6 -11 -6 -12 -9 -2 -9 8 0 10 -5 6 -12 -5 -8 -1 -7 10 2 25 20
43 21 58 2 11 -13 11 -15 -2 -9 -11 6 -11 5 1 -4 15 -11 14 -14 -3 -31 -10
-10 -16 -24 -12 -29 4 -8 9 -7 15 2 4 7 5 17 3 21 -3 4 0 8 6 8 13 0 9 -31 -5
-43 -6 -5 -3 -7 7 -3 10 3 20 1 23 -5 4 -5 12 -6 18 -3 9 5 9 4 0 -6 -12 -14
-6 -43 8 -35 4 3 6 12 3 20 -4 9 0 12 13 10 10 -2 20 -4 22 -4 3 -1 -3 -7 -13
-14 -16 -12 -16 -14 -2 -14 9 0 16 5 16 11 0 5 7 1 16 -10 8 -10 13 -14 9 -7
-3 8 1 11 14 8 18 -3 25 4 31 30 1 6 6 16 12 23 9 11 5 15 -12 14 -3 0 -6 9
-6 20 0 17 2 18 10 5 9 -14 11 -14 23 1 12 15 12 15 7 -3 -5 -16 -4 -17 5 -5
9 13 11 13 11 0 0 -9 3 -11 8 -5 10 14 32 17 32 5 0 -5 -7 -10 -15 -10 -8 0
-15 -5 -15 -10 0 -7 6 -7 19 -1 24 13 39 -4 36 -41 -1 -21 1 -25 10 -18 6 5
15 7 18 3 4 -3 7 -1 7 5 0 7 -4 12 -8 12 -5 0 -9 7 -9 15 0 8 5 15 10 15 5 0
1 8 -10 18 -10 9 -14 14 -9 10 14 -11 26 -10 26 3 0 5 -4 8 -9 4 -5 -3 -13 -1
-16 5 -4 6 -1 9 6 8 6 -2 12 7 14 19 1 12 -2 20 -7 17 -4 -3 -8 -3 -8 0 0 2
-3 13 -7 23 -6 16 -5 17 13 3 15 -11 16 -11 7 0 -15 17 -17 34 -3 25 6 -3 7 1
3 10 -5 13 -7 14 -14 3 -5 -7 -9 -10 -9 -6 0 3 -2 13 -5 21 -4 8 0 14 10 14 8
0 15 -4 15 -9 0 -5 3 -7 8 -4 4 2 7 -58 8 -134 0 -76 -4 -136 -8 -134 -12 8
-9 -11 4 -24 8 -8 8 -15 0 -25 -7 -8 -9 -17 -5 -20 3 -4 6 -27 7 -51 1 -24 -1
-43 -3 -40 -2 2 -10 -4 -18 -14 -10 -14 -12 -14 -8 -1 4 10 0 16 -12 16 -23 0
-44 -17 -37 -29 4 -6 10 -5 15 3 8 12 11 11 19 -1 8 -13 12 -13 32 -1 21 13
22 13 9 -2 -13 -16 -63 -18 -78 -4 -3 4 -13 1 -22 -5 -9 -7 -5 0 8 15 17 19
20 27 10 27 -12 0 -11 2 1 10 20 12 23 53 3 46 -8 -3 -11 -2 -8 3 3 5 1 12 -4
15 -5 3 -12 -1 -15 -9 -3 -9 1 -18 9 -21 8 -4 15 -11 15 -16 0 -6 -8 -4 -17 3
-15 12 -16 12 -10 -4 4 -11 3 -16 -3 -12 -10 6 -7 46 5 65 3 5 1 10 -4 10 -6
0 -11 -4 -11 -10 0 -5 -5 -10 -11 -10 -5 0 -8 4 -5 9 3 5 -4 11 -15 14 -12 3
-18 10 -14 16 9 16 -8 13 -31 -5 -16 -13 -16 -15 -1 -10 9 3 17 1 17 -4 0 -5
-11 -9 -25 -8 -22 2 -23 4 -9 19 14 15 13 17 -8 18 -50 1 -64 4 -80 19 -10 8
-18 11 -18 6 0 -5 -7 -1 -14 9 -8 10 -18 18 -22 17 -5 -1 -10 4 -12 12 -2 9
-1 9 5 2 4 -6 17 -9 28 -7 11 2 26 5 33 5 16 2 15 13 -4 32 -20 20 -31 20 -31
1 0 -10 6 -14 16 -10 12 5 13 3 5 -5 -12 -13 -44 -3 -44 14 0 6 -4 4 -10 -4
-5 -8 -12 -11 -17 -7 -8 9 17 28 28 21 4 -2 10 0 14 6 3 5 -1 10 -10 10 -9 0
-13 5 -9 11 4 7 1 10 -7 7 -8 -3 -13 -12 -11 -19 2 -9 -3 -7 -17 5 -13 12 -27
16 -42 11 -17 -6 -19 -9 -8 -16 9 -6 10 -9 2 -9 -6 0 -14 4 -17 9 -6 9 81 68
95 63 5 -1 9 2 9 7 0 19 -18 20 -41 2 -47 -36 -63 -40 -84 -24 -13 11 -15 14
-4 10 9 -3 23 3 33 14 9 11 22 17 28 13 8 -5 9 -1 5 12 -7 18 -7 18 8 0 13
-17 15 -17 15 -4 0 9 -5 20 -10 23 -6 4 -8 11 -5 16 4 5 4 9 1 9 -2 0 -13 3
-23 7 -16 6 -16 5 -4 -10 7 -9 9 -17 5 -17 -5 0 -14 8 -21 18 -11 19 -11 19
30 23 6 1 21 -2 31 -7 15 -5 17 -4 11 6 -5 9 -4 11 3 6 14 -8 15 -5 6 19 -5
13 -8 14 -15 3 -7 -10 -9 -10 -9 0 0 6 -5 12 -11 12 -5 0 -7 -5 -3 -12 4 -7 3
-8 -5 -4 -6 4 -18 2 -26 -4 -12 -10 -13 -7 -9 17 l4 28 -14 -25 c-14 -24 -15
-24 -13 -2 1 12 5 22 10 22 4 0 6 4 2 9 -3 6 -14 8 -24 6 -10 -2 -24 1 -32 7
-11 8 -10 9 4 4 9 -3 17 -1 17 4 0 6 -6 10 -12 10 -9 0 -8 4 2 10 17 11 17 11
-27 14 -18 1 -36 6 -40 10 -4 4 6 5 23 2 25 -5 30 -2 31 14 1 11 -2 18 -8 15
-5 -4 1 11 13 31 12 21 18 35 12 32 -5 -4 -11 2 -11 13 -1 10 3 19 8 19 6 0 8
4 5 9 -4 5 -17 8 -31 7 -21 -3 -23 -1 -14 15 5 11 7 19 5 19 -3 0 -13 -14 -22
-32 -14 -27 -14 -32 -1 -39 9 -6 13 -17 10 -29 -3 -12 0 -20 7 -20 7 0 10 7 7
15 -7 17 9 30 18 15 11 -18 -16 -41 -38 -34 -11 4 -17 2 -14 -3 9 -15 -18 -47
-32 -39 -9 6 -9 11 0 22 14 17 -2 19 -21 2 -12 -11 -12 -10 -2 3 6 9 8 19 4
23 -4 4 0 6 8 4 8 -2 18 -7 21 -11 3 -4 12 -1 19 8 11 13 10 14 -4 9 -12 -5
-15 -2 -10 12 5 18 5 18 -6 1 -9 -14 -15 -16 -26 -6 -7 6 -11 16 -7 22 3 6 1
7 -5 3 -6 -3 -15 1 -20 10 -6 11 -11 13 -16 5 -4 -6 -2 -11 4 -11 6 0 8 -5 5
-10 -4 -6 -1 -9 6 -8 7 2 14 -6 15 -18 2 -28 -21 -58 -37 -48 -9 5 -10 2 -6
-9 3 -10 4 -24 1 -32 -5 -13 -9 -13 -22 -3 -13 11 -14 9 -8 -12 5 -16 4 -20
-2 -12 -4 7 -19 14 -31 17 -18 3 -22 1 -16 -13 5 -13 4 -14 -6 -5 -10 10 -9
16 4 31 9 10 14 22 10 27 -5 4 -2 4 6 0 11 -6 13 -4 8 9 -4 9 -3 14 2 11 5 -3
12 -1 15 4 3 5 -1 11 -9 15 -8 3 -19 -2 -24 -12 -5 -9 -13 -14 -17 -10 -4 4 4
16 17 27 13 11 20 23 16 27 -4 5 -13 2 -18 -6 -9 -13 -10 -13 -6 0 2 8 13 14
25 13 14 -2 19 3 17 15 -2 9 -4 19 -4 22 -1 3 -5 -1 -10 -8 -4 -7 -19 -14 -32
-14 -13 -1 -30 -6 -38 -12 -11 -8 -13 -8 -7 2 5 8 0 12 -15 12 -22 0 -22 0 -3
-22 10 -12 14 -18 7 -15 -6 4 -13 4 -16 0 -2 -5 -3 -3 -1 4 1 6 0 14 -4 17 -3
4 -7 13 -8 20 -1 11 5 12 26 6 15 -4 34 -4 41 1 12 7 12 9 0 9 -8 0 -12 3 -9
6 4 3 16 1 27 -6 17 -9 22 -8 27 5 3 8 11 15 17 15 6 0 7 -3 4 -7 -4 -3 1 -12
11 -19 14 -11 14 -13 2 -14 -10 0 -7 -7 10 -21 14 -11 20 -18 14 -15 -15 7
-39 -20 -25 -28 5 -3 11 0 14 6 3 10 7 10 20 -1 10 -7 17 -9 17 -3 0 6 3 18 7
28 4 11 3 15 -5 10 -12 -7 -35 27 -25 38 3 3 1 6 -6 6 -7 0 -9 5 -6 10 3 6 1
10 -5 10 -6 0 -8 5 -5 10 3 6 1 10 -6 10 -7 0 -9 3 -6 7 4 3 1 13 -6 21 -10
13 -9 14 1 8 6 -4 19 -20 27 -36 14 -28 40 -34 53 -13 4 6 22 10 39 8 18 -1
37 3 43 10 9 10 2 13 -32 12 -28 -1 -47 -8 -53 -18 -9 -16 -11 -16 -25 -1 -13
14 -12 15 4 9 12 -5 16 -3 13 5 -2 7 -11 12 -20 10 -21 -3 -28 10 -15 28 8 12
9 11 4 -4 -5 -13 -2 -17 8 -13 8 3 17 3 20 -1 10 -9 36 -11 36 -2 0 4 -8 10
-18 12 -10 3 -19 12 -19 21 0 9 5 13 10 10 7 -4 8 1 3 13 -6 15 -5 16 5 7 10
-10 9 -16 -2 -29z m-306 11 c-3 -9 -8 -14 -10 -11 -3 3 -2 9 2 15 9 16 15 13
8 -4z m402 -4 c-8 -14 -25 -14 -25 0 0 5 5 7 10 4 6 -3 10 -1 10 6 0 7 3 10 6
6 3 -3 3 -10 -1 -16z m-241 1 c3 -5 -1 -9 -9 -9 -8 0 -12 4 -9 9 3 4 7 8 9 8
2 0 6 -4 9 -8z m261 -12 c-3 -5 -1 -10 6 -10 7 0 10 -3 6 -6 -9 -9 -28 6 -22
17 4 5 8 9 11 9 3 0 2 -4 -1 -10z m497 -40 c-1 -7 2 -18 8 -25 13 -15 -3 -30
-20 -20 -6 4 -18 1 -27 -7 -14 -11 -15 -10 -9 12 7 24 6 24 -8 6 -9 -11 -13
-22 -8 -25 11 -9 14 -33 3 -27 -5 4 -16 -3 -24 -14 -13 -18 -15 -19 -21 -5 -8
22 1 36 19 28 15 -5 21 8 8 21 -11 10 -12 36 -2 37 5 1 14 2 19 3 6 0 10 5 9
10 -1 13 21 24 40 21 9 -1 15 -8 13 -15z m-438 -24 c-3 -9 -10 -16 -15 -16 -5
0 -4 9 3 20 14 22 21 20 12 -4z m106 20 c0 -3 -4 -8 -10 -11 -5 -3 -10 -1 -10
4 0 6 5 11 10 11 6 0 10 -2 10 -4z m-503 -19 c0 -13 -59 -18 -71 -6 -3 3 8 4
24 3 17 -1 33 2 36 7 7 12 11 11 11 -4z m43 -1 c0 -3 -4 -8 -10 -11 -5 -3 -10
-1 -10 4 0 6 5 11 10 11 6 0 10 -2 10 -4z m-144 -41 c1 -8 -2 -15 -6 -15 -5 0
-8 9 -7 20 1 21 10 18 13 -5z m45 -2 c13 -16 12 -17 -3 -4 -10 7 -18 15 -18
17 0 8 8 3 21 -13z m35 -3 c0 -12 -4 -16 -9 -11 -5 5 -6 14 -3 20 10 15 12 14
12 -9z m864 0 c0 -12 -22 -18 -43 -12 -13 3 -15 8 -7 17 11 13 50 9 50 -5z
m-507 -4 c4 -10 0 -12 -14 -9 -27 7 -34 23 -11 23 11 0 22 -6 25 -14z m251 1
c11 12 55 11 53 -1 -1 -6 13 -11 31 -11 22 0 39 -7 50 -22 11 -15 22 -20 30
-14 8 4 12 12 10 16 -4 10 29 15 48 8 8 -3 11 -9 8 -14 -3 -5 2 -6 10 -3 9 4
18 -1 22 -10 3 -9 9 -14 13 -12 4 3 7 -23 8 -57 1 -56 0 -60 -13 -42 -9 12
-11 21 -4 23 12 4 14 42 2 42 -4 0 -13 -5 -19 -11 -7 -7 -13 -7 -17 -1 -3 6 3
14 14 17 25 8 21 30 -5 30 -10 0 -22 9 -26 20 -4 11 -8 14 -8 6 -1 -11 -4 -11
-18 0 -15 11 -16 11 -5 -1 19 -22 15 -28 -17 -25 -23 2 -28 -1 -23 -14 5 -14
4 -14 -12 -2 -13 11 -14 16 -4 22 11 7 11 9 0 9 -7 0 -10 4 -7 10 3 6 -1 7 -9
4 -9 -3 -16 -1 -16 5 0 6 -5 11 -11 11 -5 0 -7 -5 -3 -11 4 -8 0 -8 -15 0 -17
9 -20 9 -15 -3 3 -8 1 -17 -4 -20 -5 -3 -12 3 -15 14 -3 10 0 21 7 24 6 3 0 4
-14 3 -28 -2 -50 -25 -43 -44 4 -9 -1 -11 -13 -7 -11 3 -15 2 -8 -3 20 -15 35
-51 24 -58 -5 -3 -10 -12 -10 -18 0 -7 4 -6 10 3 9 14 14 7 11 -15 -1 -5 8 2
20 18 23 30 39 35 39 12 0 -8 4 -15 10 -15 5 0 6 -8 3 -17 -6 -15 -8 -14 -16
5 l-10 21 -16 -21 c-24 -29 -63 -9 -59 30 2 15 -1 26 -7 25 -5 -1 -10 15 -11
35 -1 21 1 31 3 24 4 -10 8 -8 18 5 10 14 11 21 2 33 -10 13 -10 13 4 3 9 -7
19 -10 23 -6z m-724 -17 c0 -5 -5 -10 -11 -10 -5 0 -7 5 -4 10 3 6 8 10 11 10
2 0 4 -4 4 -10z m641 -13 c-10 -9 -11 -8 -5 6 3 10 9 15 12 12 3 -3 0 -11 -7
-18z m-36 3 c-3 -5 -12 -10 -18 -10 -7 0 -6 4 3 10 19 12 23 12 15 0z m-561
-12 c-4 -5 -9 -7 -12 -4 -3 3 -12 0 -21 -7 -14 -10 -14 -10 -4 4 13 16 46 23
37 7z m176 -3 c0 -8 -4 -15 -8 -15 -5 0 -9 7 -9 15 0 8 4 15 9 15 4 0 8 -7 8
-15z m531 3 c1 -7 3 -24 4 -38 3 -24 -10 -50 -25 -50 -3 0 -7 6 -8 13 -6 37
-8 73 -5 80 7 12 33 8 34 -5z m82 -7 c5 -1 6 -5 3 -10 -3 -5 1 -14 9 -21 16
-14 21 -35 6 -25 -6 3 -14 -3 -20 -12 -9 -16 -10 -16 -11 -1 0 9 5 20 10 23 8
5 7 11 -1 21 -6 7 -15 11 -20 8 -5 -3 -9 1 -9 8 0 8 -5 6 -11 -5 -8 -13 -5
-24 11 -44 11 -14 18 -29 14 -32 -3 -3 -12 3 -19 14 -8 11 -19 25 -24 31 -13
16 14 53 36 49 10 -2 22 -4 26 -4z m-869 -9 c3 -5 -1 -9 -9 -9 -8 0 -12 4 -9
9 3 4 7 8 9 8 2 0 6 -4 9 -8z m1004 -15 c10 4 13 2 8 -5 -4 -7 -17 -12 -28
-12 -20 0 -21 -1 -3 -20 14 -15 21 -17 32 -9 9 8 13 8 13 1 0 -16 -14 -22 -38
-15 -13 3 -19 10 -15 17 4 6 -1 4 -12 -4 -16 -14 -17 -13 -11 7 4 12 2 24 -4
28 -10 6 -14 -6 -11 -37 1 -10 -2 -18 -7 -18 -5 0 -9 6 -9 13 0 6 -2 17 -3 22
-6 23 1 34 20 30 11 -2 22 1 26 6 4 7 10 7 16 1 6 -6 17 -8 26 -5z m-763 -15
c-3 -3 -11 0 -18 7 -9 10 -8 11 6 5 10 -3 15 -9 12 -12z m445 14 c0 -3 -4 -8
-10 -11 -5 -3 -10 -1 -10 4 0 6 5 11 10 11 6 0 10 -2 10 -4z m173 -12 c-4 -13
-26 -11 -30 3 -2 6 4 10 14 9 10 -2 17 -7 16 -12z m26 -55 c-5 -3 8 -5 31 -5
22 0 40 3 40 7 0 12 59 -14 65 -29 3 -8 1 -20 -3 -28 -7 -12 -12 -11 -28 7
l-19 22 25 -8 c24 -7 24 -7 5 8 -12 10 -22 12 -26 5 -9 -14 -20 -12 -30 4 -7
10 -9 8 -9 -7 -1 -20 -1 -20 -15 -1 -8 11 -15 14 -15 8 0 -12 -21 -12 -30 0
-3 3 -13 0 -23 -7 -18 -13 -17 -14 2 -20 12 -3 21 -11 21 -16 0 -13 -13 -11
-34 4 -19 14 -13 47 9 47 8 0 17 10 20 21 6 17 9 19 16 8 4 -8 4 -16 -2 -20z
m26 21 c3 -5 1 -10 -4 -10 -6 0 -11 5 -11 10 0 6 2 10 4 10 3 0 8 -4 11 -10z
m-278 -15 c0 -8 -4 -12 -9 -9 -5 3 -6 10 -3 15 9 13 12 11 12 -6z m-174 -2
c-7 -2 -19 -2 -25 0 -7 3 -2 5 12 5 14 0 19 -2 13 -5z m-88 -13 c3 -5 1 -10
-4 -10 -6 0 -11 5 -11 10 0 6 2 10 4 10 3 0 8 -4 11 -10z m-252 -23 c12 -4 17
-1 17 11 1 16 1 16 11 0 6 -12 7 -24 1 -35 -7 -12 -5 -24 5 -40 8 -13 13 -24
9 -24 -3 -1 -11 -2 -18 -3 -12 -1 -48 -57 -42 -66 1 -3 -2 -12 -8 -20 -8 -12
-9 -12 -4 2 3 10 0 20 -5 24 -14 8 -8 -68 6 -78 6 -5 3 -8 -7 -8 -10 0 -18 5
-18 11 0 5 -5 7 -12 3 -6 -4 -8 -3 -5 3 4 6 0 16 -8 23 -17 14 -22 125 -5 115
28 -18 58 -14 73 8 23 36 8 52 -36 38 -20 -7 -38 -17 -41 -24 -2 -7 -3 -1 -1
13 2 14 4 28 4 32 1 12 55 37 61 29 3 -4 13 -10 23 -14z m294 1 c2 -17 0 -19
-7 -8 -5 8 -6 18 -4 22 8 12 10 10 11 -14z m283 16 c0 -8 -19 -13 -24 -6 -3 5
1 9 9 9 8 0 15 -2 15 -3z m115 -24 c-2 -4 10 -14 26 -24 24 -14 34 -15 42 -6
9 9 7 15 -8 26 l-20 16 20 -4 c27 -4 36 -19 22 -38 -10 -13 -10 -13 5 -2 9 8
14 21 11 30 -3 11 -2 13 4 6 10 -14 43 -14 43 0 0 19 34 -23 37 -46 9 -61 9
-77 1 -72 -4 3 -8 1 -8 -4 0 -13 -29 -10 -34 4 -3 8 2 11 15 9 11 -2 17 0 14
6 -4 5 -1 9 4 9 6 0 11 5 11 11 0 5 -4 7 -10 4 -6 -4 -7 1 -4 12 3 10 2 14 -3
8 -13 -16 -31 -16 -37 1 -4 10 0 14 11 12 9 -2 17 5 19 16 2 14 0 16 -9 7 -15
-15 -30 -14 -21 2 5 6 -7 0 -25 -15 -26 -23 -36 -26 -52 -18 -23 13 -43 4 -35
-15 2 -7 -2 -16 -10 -19 -9 -4 -18 3 -24 19 -11 28 -16 30 -26 13 -4 -7 -3 -8
4 -4 7 4 12 3 12 -3 0 -15 -18 -23 -25 -11 -4 6 -2 17 4 24 6 7 7 17 3 21 -4
5 -1 5 6 1 20 -12 33 3 22 23 -5 10 -6 21 -3 25 8 7 24 -15 18 -24z m-466 -1
c-22 -13 -31 -11 -17 5 7 8 17 12 22 9 4 -3 2 -9 -5 -14z m-389 1 c0 -5 -2
-10 -4 -10 -3 0 -8 5 -11 10 -3 6 -1 10 4 10 6 0 11 -4 11 -10z m540 0 c0 -5
-4 -10 -10 -10 -5 0 -10 5 -10 10 0 6 5 10 10 10 6 0 10 -4 10 -10z m-596 -18
c3 -5 -1 -9 -9 -9 -8 0 -12 4 -9 9 3 4 7 8 9 8 2 0 6 -4 9 -8z m556 -8 c-6 -6
-6 -15 -2 -19 4 -5 1 -5 -6 -1 -7 4 -10 11 -7 16 3 4 -1 10 -7 13 -7 3 -3 4 9
4 15 -1 19 -5 13 -13z m88 -9 c0 -30 -7 -28 -13 4 -2 11 0 21 4 21 5 0 9 -11
9 -25z m502 15 c0 -5 -4 -10 -10 -10 -5 0 -10 5 -10 10 0 6 5 10 10 10 6 0 10
-4 10 -10z m-759 -23 c-10 -9 -11 -8 -5 6 3 10 9 15 12 12 3 -3 0 -11 -7 -18z
m225 11 c4 -7 3 -8 -5 -4 -6 4 -20 2 -29 -6 -15 -12 -16 -11 -3 5 16 20 27 22
37 5z m-141 -8 c3 -5 1 -10 -4 -10 -6 0 -11 5 -11 10 0 6 2 10 4 10 3 0 8 -4
11 -10z m564 3 c-4 -24 3 -43 14 -41 7 2 13 -1 13 -7 0 -5 -6 -9 -13 -7 -17 4
-17 -22 0 -35 6 -6 24 -9 38 -6 18 2 29 -2 33 -12 3 -9 2 -13 -3 -10 -5 3 -12
1 -15 -4 -7 -11 -55 -9 -73 2 -6 4 -15 3 -18 -3 -5 -8 -11 -8 -20 0 -8 7 -20
8 -27 4 -7 -4 -10 -4 -6 1 4 4 4 13 -1 19 -6 7 -4 19 6 31 15 20 15 20 10 -2
-3 -14 1 -27 12 -35 14 -12 15 -11 2 5 -8 10 -9 17 -3 17 6 0 15 -6 19 -14 7
-12 10 -12 21 0 8 9 9 14 2 14 -8 0 -8 7 0 23 10 20 10 21 -4 4 -14 -18 -15
-17 -21 4 -6 17 -9 19 -16 8 -7 -12 -9 -11 -9 1 -1 9 -6 5 -15 -10 -9 -16 -15
-20 -15 -10 -1 10 -3 11 -7 3 -5 -15 -23 -18 -23 -5 0 10 49 35 70 36 8 0 21
8 28 18 14 19 23 23 21 11z m-859 -17 c0 -3 -4 -8 -10 -11 -5 -3 -10 -1 -10 4
0 6 5 11 10 11 6 0 10 -2 10 -4z m270 -6 c0 -5 -2 -10 -4 -10 -3 0 -8 5 -11
10 -3 6 -1 10 4 10 6 0 11 -4 11 -10z m70 -2 c0 -6 -3 -8 -7 -5 -3 4 -12 2
-20 -5 -11 -8 -12 -7 -7 6 7 18 34 22 34 4z m440 2 c0 -5 -4 -10 -10 -10 -5 0
-10 5 -10 10 0 6 5 10 10 10 6 0 10 -4 10 -10z m-321 -17 c0 -5 -4 -17 -9 -28
-8 -17 -8 -16 -7 8 1 15 5 27 9 27 4 0 8 -3 7 -7z m226 -3 c3 -5 12 -7 20 -4
7 3 18 -4 25 -16 8 -14 17 -19 28 -15 9 3 13 3 9 -1 -4 -4 -2 -13 4 -21 9 -9
8 -13 0 -13 -6 0 -11 5 -11 11 0 8 -4 8 -14 0 -10 -8 -16 -9 -21 -1 -3 6 -12
7 -18 3 -7 -4 -6 1 2 10 8 10 11 20 7 24 -12 12 -43 10 -43 -3 0 -7 6 -10 14
-7 7 3 13 0 13 -7 0 -6 -4 -8 -10 -5 -5 3 -10 2 -10 -4 0 -5 3 -11 8 -14 4 -2
2 -3 -5 -1 -12 3 -12 -21 2 -33 4 -4 6 -3 2 2 -3 6 3 16 14 23 24 15 24 7 0
-27 -15 -21 -17 -28 -6 -28 8 0 11 5 8 10 -3 6 -1 7 4 4 6 -4 10 1 9 10 0 9 6
18 14 20 13 4 13 3 0 -7 -12 -9 -12 -13 -2 -17 10 -4 9 -9 -5 -19 -17 -13 -17
-14 0 -8 9 3 17 2 17 -4 0 -8 14 -9 55 -3 6 1 3 6 -5 11 -12 7 -10 9 7 7 15
-1 19 -5 13 -13 -6 -6 -7 -13 -4 -17 3 -3 -3 -10 -14 -16 -16 -8 -25 -6 -46
10 -14 11 -26 17 -26 14 0 -4 -7 -2 -15 5 -8 7 -15 9 -15 5 0 -4 -6 -2 -14 4
-7 6 -12 22 -11 36 3 26 -31 79 -45 70 -5 -3 -11 -1 -14 4 -11 17 11 22 24 6
10 -12 16 -13 26 -4 8 6 11 15 8 20 -3 5 -1 9 5 9 5 0 12 -4 16 -10z m-430
-43 c6 -42 -10 -57 -33 -32 -16 16 -16 17 4 6 19 -9 22 -8 22 15 0 19 -3 22
-14 13 -11 -9 -14 -9 -14 0 0 7 -5 9 -12 5 -7 -4 -8 -3 -4 4 4 6 13 9 21 5 10
-3 15 1 15 13 0 29 10 9 15 -29z m101 23 c0 -12 -4 -16 -9 -11 -5 5 -6 14 -3
20 10 15 12 14 12 -9z m-56 0 c0 -5 -2 -10 -4 -10 -3 0 -8 5 -11 10 -3 6 -1
10 4 10 6 0 11 -4 11 -10z m199 -9 c11 -11 17 -22 14 -25 -4 -3 -13 3 -20 14
-8 11 -19 17 -25 14 -7 -4 -8 -2 -4 4 10 16 13 15 35 -7z m331 -6 c14 -19 14
-19 -2 -6 -10 7 -18 18 -18 24 0 6 1 8 3 6 1 -2 9 -13 17 -24z m-419 -12 c13
-16 12 -17 -3 -4 -10 7 -18 15 -18 17 0 8 8 3 21 -13z m-346 -2 c-3 -5 3 -11
12 -13 13 -3 11 -6 -8 -9 -25 -5 -29 0 -20 29 1 1 6 2 12 2 5 0 8 -4 4 -9z
m235 -1 c-8 -5 -19 -10 -25 -10 -5 0 -3 5 5 10 8 5 20 10 25 10 6 0 3 -5 -5
-10z m35 1 c3 -5 2 -12 -3 -15 -5 -3 -9 1 -9 9 0 17 3 19 12 6z m155 -26 c0
-5 -5 -3 -10 5 -5 8 -10 20 -10 25 0 6 5 3 10 -5 5 -8 10 -19 10 -25z m-60 1
c0 -2 -8 -10 -17 -17 -16 -13 -17 -12 -4 4 13 16 21 21 21 13z m345 -8 c29
-13 32 -23 9 -32 -8 -3 -12 -10 -9 -16 7 -12 -5 -13 -20 -2 -9 6 -17 62 -9 62
2 0 15 -5 29 -12z m-840 -8 c-3 -5 -1 -10 4 -10 6 0 11 -7 11 -16 0 -13 -3
-14 -13 -5 -8 6 -18 7 -22 3 -5 -4 -5 -1 0 7 4 8 2 17 -6 22 -10 6 -8 9 9 9
13 0 20 -4 17 -10z m285 -11 c6 -11 13 -29 15 -41 3 -16 2 -18 -10 -8 -8 6
-19 9 -25 5 -5 -3 -10 -1 -10 4 0 6 7 11 15 11 8 0 15 5 15 10 0 6 -4 10 -8
10 -5 0 -9 7 -9 15 0 20 4 19 17 -6z m70 1 c8 -5 11 -10 5 -10 -5 0 -17 5 -25
10 -8 5 -10 10 -5 10 6 0 17 -5 25 -10z m-21 -36 c-6 -8 -14 -14 -17 -14 -3 0
-1 5 6 12 9 9 7 15 -6 25 -15 13 -14 13 6 3 19 -9 21 -14 11 -26z m662 19 c13
-16 12 -17 -3 -4 -17 13 -22 21 -14 21 2 0 10 -8 17 -17z m-1034 -8 c0 -8 -4
-12 -9 -9 -4 3 -8 9 -8 15 0 5 4 9 8 9 5 0 9 -7 9 -15z m179 -7 c21 -1 33 -3
26 -6 -7 -2 -9 -9 -5 -15 4 -6 0 -8 -10 -4 -9 3 -19 1 -23 -5 -4 -6 -3 -8 2
-5 6 3 16 1 24 -4 13 -8 13 -10 0 -19 -17 -11 -48 -4 -68 16 -13 13 -8 19 13
14 6 -1 4 4 -2 11 -7 7 -13 20 -13 29 0 11 2 12 8 2 5 -7 26 -13 48 -14z m335
5 c13 -16 12 -17 -3 -4 -10 7 -18 15 -18 17 0 8 8 3 21 -13z m62 10 c3 -5 -5
-8 -18 -8 -13 0 -21 3 -18 8 2 4 10 7 18 7 8 0 16 -3 18 -7z m-118 -15 c5 4 5
1 1 -6 -6 -10 -11 -10 -22 -1 -8 6 -14 14 -14 16 0 3 6 0 13 -6 8 -6 18 -7 22
-3z m-425 -13 c7 -9 8 -15 2 -15 -5 0 -12 7 -16 15 -3 8 -4 15 -2 15 2 0 9 -7
16 -15z m541 -2 c13 -16 12 -17 -3 -4 -10 7 -18 15 -18 17 0 8 8 3 21 -13z
m84 -13 c3 -5 2 -10 -4 -10 -5 0 -13 5 -16 10 -3 6 -2 10 4 10 5 0 13 -4 16
-10z m-17 -28 c2 -7 9 -9 14 -6 7 5 8 2 3 -6 -6 -10 -11 -10 -20 3 -7 9 -14
14 -17 11 -4 -3 -9 -1 -12 4 -3 6 2 9 11 8 9 -2 19 -8 21 -14z m-658 -12 c0
-5 -5 -10 -11 -10 -5 0 -7 5 -4 10 3 6 8 10 11 10 2 0 4 -4 4 -10z m693 -15
c-3 -9 -8 -14 -10 -11 -3 3 -2 9 2 15 9 16 15 13 8 -4z m-525 -51 c25 -2 29
-4 29 -17 0 -7 -11 -12 -26 -11 -14 0 -29 -4 -33 -10 -5 -8 -8 -7 -8 2 0 6 -8
12 -17 12 -12 0 -14 3 -6 8 7 5 9 13 3 21 -4 8 -6 20 -3 28 4 10 11 8 27 -9
11 -13 27 -23 34 -24z m548 10 c1 -9 0 -13 -4 -10 -3 4 -7 14 -8 22 -1 9 0 13
4 10 3 -4 7 -14 8 -22z m-516 6 c0 -5 -2 -10 -4 -10 -3 0 -8 5 -11 10 -3 6 -1
10 4 10 6 0 11 -4 11 -10z m33 -45 c-3 -9 -8 -14 -10 -11 -3 3 -2 9 2 15 9 16
15 13 8 -4z m544 -12 c0 -8 -4 -10 -12 -3 -7 5 -16 6 -20 2 -5 -4 -5 -2 -2 4
9 15 34 13 34 -3z m60 -5 c-3 -8 -6 -5 -6 6 -1 11 2 17 5 13 3 -3 4 -12 1 -19z
m88 -8 c-3 -5 -11 -10 -16 -10 -6 0 -7 5 -4 10 3 6 11 10 16 10 6 0 7 -4 4
-10z m-35 -21 c0 -14 -17 -10 -23 5 -4 10 -1 13 9 9 7 -3 14 -9 14 -14z m-70
7 c0 -3 -4 -8 -10 -11 -5 -3 -10 -1 -10 4 0 6 5 11 10 11 6 0 10 -2 10 -4z
m130 -5 c0 -6 -5 -13 -11 -17 -8 -5 -8 -9 1 -14 8 -5 7 -9 -5 -13 -9 -4 -13
-3 -10 3 3 6 0 10 -7 10 -8 0 -6 5 5 11 9 6 15 14 12 20 -4 5 -1 9 4 9 6 0 11
-4 11 -9z m-113 -36 c0 -8 -4 -15 -9 -15 -10 0 -11 14 -1 23 9 10 10 9 10 -8z
m68 -5 c3 -5 -4 -6 -15 -3 -11 3 -22 9 -25 13 -3 5 4 6 15 3 11 -3 22 -9 25
-13z m-25 -20 c0 -5 -2 -10 -4 -10 -3 0 -8 5 -11 10 -3 6 -1 10 4 10 6 0 11
-4 11 -10z m100 -1 c0 -5 -6 -8 -12 -6 -7 1 -13 -6 -13 -15 0 -9 -4 -20 -9
-25 -5 -4 -6 -3 -2 5 4 6 3 12 -2 12 -6 0 -12 7 -15 14 -4 11 -1 13 10 9 9 -4
14 -2 10 3 -3 6 3 11 14 11 10 1 19 -2 19 -8z m-51 -58 c10 -7 7 -9 -12 -8
-14 1 -23 5 -20 10 6 9 15 9 32 -2z m51 5 c0 -2 -7 -7 -16 -10 -8 -3 -12 -2
-9 4 6 10 25 14 25 6z m60 -6 c0 -5 -4 -10 -10 -10 -5 0 -10 5 -10 10 0 6 5
10 10 10 6 0 10 -4 10 -10z m31 -15 c-1 -3 -4 -6 -8 -7 -5 0 -14 -8 -21 -17
-7 -9 -5 -1 5 17 15 27 27 31 24 7z m-114 -27 c-3 -8 -6 -5 -6 6 -1 11 2 17 5
13 3 -3 4 -12 1 -19z m60 4 c0 -10 -9 -18 -18 -18 -17 0 -17 1 -1 18 21 21 21
21 19 0z"/>
<path d="M1307 917 c-3 -8 1 -14 8 -14 7 0 11 6 8 14 -3 7 -6 13 -8 13 -2 0
-5 -6 -8 -13z"/>
<path d="M1090 841 c0 -6 4 -13 10 -16 6 -3 7 1 4 9 -7 18 -14 21 -14 7z"/>
<path d="M885 801 c-3 -5 -1 -12 5 -16 7 -4 7 -12 0 -26 -6 -10 -7 -19 -3 -19
4 0 1 -5 -7 -10 -12 -8 -12 -10 -1 -10 10 0 11 -3 2 -14 -9 -10 -8 -16 4 -26
8 -7 12 -16 9 -21 -3 -5 0 -9 6 -9 6 0 8 -5 4 -12 -4 -7 -3 -8 5 -4 6 4 9 12
6 17 -4 5 0 9 7 9 9 0 9 3 -2 10 -8 5 -11 10 -6 10 6 0 1 7 -10 16 -15 12 -16
15 -2 10 25 -7 28 17 4 32 -20 12 -20 13 4 7 14 -4 20 -3 15 2 -17 13 -12 35
10 44 11 4 16 8 10 9 -5 1 -20 3 -32 6 -12 2 -25 0 -28 -5z"/>
<path d="M660 755 c-8 -9 -8 -15 -2 -15 12 0 26 19 19 26 -2 2 -10 -2 -17 -11z"/>
<path d="M695 720 c-4 -6 -10 -8 -14 -6 -4 3 -17 -8 -29 -23 -18 -25 -19 -29
-5 -27 9 2 19 8 21 14 2 7 8 12 13 12 6 0 7 -4 4 -10 -3 -5 -1 -10 4 -10 6 0
10 10 8 23 -1 14 3 21 11 19 8 -1 11 2 7 8 -8 13 -12 13 -20 0z"/>
<path d="M790 715 c-7 -9 -8 -15 -2 -15 5 0 12 7 16 15 3 8 4 15 2 15 -2 0 -9
-7 -16 -15z"/>
<path d="M950 701 c0 -6 4 -12 8 -15 5 -3 9 1 9 9 0 8 -4 15 -9 15 -4 0 -8 -4
-8 -9z"/>
<path d="M957 630 c10 -11 9 -17 -4 -32 -15 -17 -15 -18 -1 -13 24 10 29 32
10 46 -14 11 -15 11 -5 -1z"/>
<path d="M1020 582 c0 -12 19 -26 26 -19 2 2 -2 10 -11 17 -9 8 -15 8 -15 2z"/>
<path d="M983 525 c0 -7 6 -11 14 -8 7 3 13 6 13 8 0 2 -6 5 -13 8 -8 3 -14
-1 -14 -8z"/>
<path d="M1025 492 c-3 -3 2 -14 12 -24 9 -10 12 -18 7 -19 -46 -4 -71 -20
-59 -39 5 -8 10 -8 20 0 17 14 39 3 92 -50 l26 -25 -13 25 c-7 14 -13 27 -13
30 1 3 -4 4 -9 2 -6 -2 -19 5 -29 14 -17 16 -18 19 -4 40 9 15 11 25 5 29 -6
4 -8 10 -6 14 6 8 -21 11 -29 3z m26 -19 c13 -16 12 -17 -3 -4 -10 7 -18 15
-18 17 0 8 8 3 21 -13z m-36 -43 c-3 -5 -12 -10 -18 -10 -7 0 -6 4 3 10 19 12
23 12 15 0z"/>
<path d="M933 447 c-18 -20 -18 -20 15 -3 36 18 39 23 17 23 -8 0 -23 -9 -32
-20z"/>
<path d="M1263 409 c-2 -24 -33 -70 -43 -64 -5 3 -11 1 -15 -5 -4 -6 -12 -7
-18 -3 -17 11 -57 12 -57 1 0 -4 -7 -8 -15 -8 -8 0 -15 -5 -15 -10 0 -6 7 -10
16 -8 10 2 18 -3 20 -10 1 -7 0 -8 -3 -2 -3 8 -9 8 -18 0 -10 -8 -15 -6 -20 9
-6 20 -35 19 -35 -2 0 -6 3 -7 7 -4 3 4 15 0 25 -10 10 -9 21 -13 24 -10 4 3
15 2 26 -4 21 -11 53 5 42 22 -3 5 6 4 20 -3 14 -6 26 -15 26 -20 0 -4 5 -8
11 -8 8 0 7 5 -2 16 -18 22 -20 41 -3 55 11 9 14 9 14 0 0 -7 5 -9 10 -6 7 5
8 11 1 19 -7 8 -4 12 10 13 14 1 19 -3 15 -12 -3 -8 -1 -17 3 -19 5 -3 8 4 7
15 0 11 -8 24 -16 29 -8 5 -11 10 -7 10 4 0 20 -8 34 -17 19 -13 25 -14 19 -4
-6 9 -5 12 2 7 6 -3 9 -15 7 -26 -2 -11 -1 -19 3 -19 4 1 14 1 22 0 13 -1 13
-2 0 -11 -8 -5 -11 -12 -8 -15 13 -13 29 7 22 27 -4 15 -3 18 6 13 9 -5 11 -4
6 4 -6 9 -11 9 -22 0 -15 -13 -15 -12 -19 31 -1 17 -3 32 -4 35 0 3 -10 1 -21
-5 -16 -8 -22 -8 -26 3 -7 20 -30 17 -31 -4z m32 -9 c4 -6 13 -7 24 -1 13 7
18 6 18 -3 0 -7 -7 -12 -16 -11 -20 1 -60 24 -44 25 6 0 15 -5 18 -10z m-109
-73 c4 -4 13 -2 21 5 11 8 12 7 7 -6 -3 -9 -14 -15 -22 -14 -9 2 -17 -3 -17
-11 0 -8 -6 -15 -13 -17 -7 -1 -8 0 -2 3 6 3 4 11 -5 20 -8 8 -13 18 -10 23 6
9 31 8 41 -3z"/>
<path d="M1156 318 c3 -5 10 -6 15 -3 13 9 11 12 -6 12 -8 0 -12 -4 -9 -9z"/>
<path d="M1307 339 c-7 -25 1 -51 13 -44 5 3 12 0 16 -6 4 -7 3 -9 -3 -6 -5 3
-10 0 -10 -7 0 -8 6 -12 13 -9 6 2 15 0 19 -6 3 -7 -3 -11 -16 -11 -19 0 -20
-2 -8 -17 8 -9 -2 -5 -22 10 -20 15 -38 25 -41 22 -2 -3 -4 4 -3 16 1 11 7 24
14 29 8 4 10 13 6 20 -6 9 -13 6 -27 -11 -11 -15 -16 -18 -12 -6 3 9 2 17 -4
17 -15 0 -8 -30 9 -41 12 -8 11 -12 -5 -24 -20 -15 -20 -15 0 -16 34 -2 39 -4
66 -22 15 -10 32 -16 37 -12 7 3 8 0 5 -9 -3 -9 -11 -13 -17 -9 -6 3 -7 1 -3
-6 4 -6 2 -20 -6 -29 -12 -15 -11 -16 5 -3 9 7 17 9 17 4 0 -15 28 -12 34 3 3
8 -3 18 -12 23 -16 9 -16 11 2 24 14 10 16 16 7 21 -9 6 -9 11 0 22 6 8 9 17
5 21 -3 3 -6 1 -6 -5 0 -7 -4 -12 -10 -12 -5 0 -7 7 -4 15 4 10 0 15 -11 15
-12 0 -16 6 -12 20 3 11 0 18 -6 17 -6 -1 -11 3 -12 10 0 22 -12 24 -18 2z
m68 -109 c3 -6 -1 -7 -9 -4 -18 7 -21 14 -7 14 6 0 13 -4 16 -10z"/>
<path d="M1290 302 c0 -7 -5 -10 -11 -6 -8 5 -8 1 0 -14 12 -22 40 -37 37 -19
-3 20 -25 53 -26 39z"/>
<path d="M1190 280 c0 -5 5 -10 10 -10 6 0 10 5 10 10 0 6 -4 10 -10 10 -5 0
-10 -4 -10 -10z"/>
<path d="M1338 862 c4 -11 1 -13 -8 -7 -9 5 -11 4 -6 -4 4 -6 11 -9 16 -6 4 3
10 -1 13 -7 2 -7 4 -1 3 13 0 14 -6 26 -13 26 -6 0 -9 -7 -5 -15z"/>
<path d="M1115 730 c-3 -5 -2 -17 3 -26 8 -14 10 -12 10 9 0 29 -3 33 -13 17z"/>
<path d="M1157 593 c-2 -5 -1 -17 3 -27 6 -19 7 -19 12 2 6 21 -6 40 -15 25z"/>
<path d="M1266 553 c-6 -14 -5 -15 5 -6 7 7 10 15 7 18 -3 3 -9 -2 -12 -12z"/>
<path d="M1285 480 c-7 -12 -8 -11 28 -14 15 -2 30 0 32 5 3 4 -3 6 -12 4 -10
-1 -23 2 -30 7 -7 5 -14 5 -18 -2z"/>
<path d="M1085 511 c-3 -5 -2 -12 3 -15 5 -3 9 1 9 9 0 17 -3 19 -12 6z"/>
<path d="M1186 441 c-4 -5 -2 -12 3 -15 5 -4 12 -2 15 3 4 5 2 12 -3 15 -5 4
-12 2 -15 -3z"/>
<path d="M433 282 c9 -10 14 -21 11 -25 -4 -4 4 -4 16 -2 12 2 25 7 29 11 3 4
-2 4 -12 1 -11 -4 -20 -1 -23 7 -3 8 -13 17 -22 21 -14 5 -14 4 1 -13z"/>
<path d="M1082 968 c-10 -10 -7 -15 10 -26 23 -13 23 -13 1 -7 -16 4 -25 0
-33 -15 -7 -13 -17 -19 -26 -16 -9 3 -12 1 -9 -4 8 -13 48 -8 68 8 11 10 17 9
26 -2 7 -8 21 -13 31 -11 11 2 26 -5 33 -16 8 -10 17 -16 21 -11 4 4 12 7 18
7 20 0 17 36 -4 57 -11 11 -23 17 -26 13 -4 -3 0 -10 8 -15 9 -6 10 -10 3 -10
-6 0 -14 4 -18 10 -9 15 -37 -1 -30 -18 3 -9 -4 -5 -17 8 -20 22 -21 27 -8 38
8 8 10 11 3 8 -6 -4 -14 -2 -18 4 -8 13 -18 13 -33 -2z m28 -8 c0 -5 -4 -10
-10 -10 -5 0 -10 5 -10 10 0 6 5 10 10 10 6 0 10 -4 10 -10z m-25 -39 c3 -5 2
-12 -3 -15 -5 -3 -9 1 -9 9 0 17 3 19 12 6z m49 -7 c5 -14 4 -15 -9 -4 -17 14
-19 20 -6 20 5 0 12 -7 15 -16z m76 -2 c7 2 14 -4 15 -13 3 -20 -25 -21 -47
-1 -20 17 -13 39 7 22 7 -6 18 -9 25 -8z"/>
<path d="M1182 905 c15 -16 20 -17 30 -6 11 11 10 13 0 7 -7 -4 -21 -2 -30 5
-15 12 -15 11 0 -6z"/>
<path d="M1166 966 c7 -19 20 -21 30 -3 4 6 4 9 -1 5 -4 -4 -14 -3 -22 4 -11
8 -12 7 -7 -6z"/>
<path d="M960 925 c-7 -9 -8 -15 -2 -15 5 0 12 7 16 15 3 8 4 15 2 15 -2 0 -9
-7 -16 -15z"/>
</g>
</svg>
