<?xml version="1.0" standalone="no"?>
<!DOCTYPE svg PUBLIC "-//W3C//DTD SVG 20010904//EN"
 "http://www.w3.org/TR/2001/REC-SVG-20010904/DTD/svg10.dtd">
<svg version="1.0" xmlns="http://www.w3.org/2000/svg"
 width="14400.000000pt" height="7200.000000pt" viewBox="0 0 14400.000000 7200.000000"
 preserveAspectRatio="xMidYMid meet">
<metadata>
Created by potrace 1.12, written by Peter Selinger 2001-2015
</metadata>
<g transform="translate(0.000000,7200.000000) scale(7.200000,-7.200000)"
fill="#000000" stroke="none">
<path d="M14 992 c3 -5 0 -13 -6 -15 -9 -4 -10 -6 -1 -6 17 -1 25 16 12 25 -7
4 -9 3 -5 -4z"/>
<path d="M155 990 c-3 -6 1 -7 9 -4 18 7 21 14 7 14 -6 0 -13 -4 -16 -10z"/>
<path d="M255 990 c6 -10 4 -12 -8 -7 -10 3 -17 2 -17 -3 0 -13 27 -13 35 -1
3 5 0 13 -6 17 -8 5 -9 3 -4 -6z"/>
<path d="M283 993 c4 -7 -2 -18 -15 -27 -12 -9 -17 -16 -11 -16 6 0 17 7 24
16 12 15 14 14 20 -7 6 -22 7 -22 8 -3 1 12 -7 28 -16 35 -10 8 -14 9 -10 2z"/>
<path d="M319 981 c5 -9 11 -23 14 -31 3 -8 4 -1 4 16 -1 17 -7 31 -14 31 -8
0 -9 -6 -4 -16z"/>
<path d="M357 993 c-4 -3 -7 -11 -7 -17 0 -6 5 -5 12 2 6 6 9 14 7 17 -3 3 -9
2 -12 -2z"/>
<path d="M436 987 c3 -10 9 -15 12 -12 3 3 0 11 -7 18 -10 9 -11 8 -5 -6z"/>
<path d="M464 993 c4 -7 2 -21 -3 -32 -9 -15 -6 -22 14 -35 21 -14 24 -14 19
-1 -4 8 -12 15 -20 15 -8 0 -11 6 -8 15 4 8 12 15 19 15 7 0 18 6 24 13 8 10
7 14 -4 14 -8 0 -12 -4 -9 -9 8 -13 -10 -10 -25 5 -11 9 -12 9 -7 0z"/>
<path d="M541 991 c-11 -7 -11 -12 0 -32 7 -13 12 -31 11 -39 -2 -11 1 -10 8
3 9 13 7 21 -5 33 -12 12 -13 19 -4 30 13 16 10 18 -10 5z"/>
<path d="M574 988 c3 -13 46 -18 46 -5 0 4 0 9 0 12 0 3 -9 1 -19 -5 -13 -7
-21 -7 -24 0 -3 6 -4 5 -3 -2z"/>
<path d="M673 985 c0 -8 4 -15 9 -15 4 0 8 4 8 9 0 6 -4 12 -8 15 -5 3 -9 -1
-9 -9z"/>
<path d="M866 983 c-6 -14 -5 -15 5 -6 7 7 10 15 7 18 -3 3 -9 -2 -12 -12z"/>
<path d="M1051 993 c-1 -17 16 -25 25 -12 4 7 3 9 -4 5 -5 -3 -13 0 -15 6 -4
9 -6 10 -6 1z"/>
<path d="M1106 983 c-6 -14 -5 -15 5 -6 7 7 10 15 7 18 -3 3 -9 -2 -12 -12z"/>
<path d="M1257 993 c-4 -3 -7 -11 -7 -17 0 -6 5 -5 12 2 6 6 9 14 7 17 -3 3
-9 2 -12 -2z"/>
<path d="M1280 979 c-7 -11 -10 -23 -7 -25 2 -2 9 7 15 21 14 30 7 33 -8 4z"/>
<path d="M1399 913 c0 -49 0 -167 1 -265 1 -114 -3 -178 -9 -183 -7 -4 -8 -13
-2 -23 10 -21 3 -44 -11 -36 -7 4 -8 2 -4 -5 4 -6 12 -9 17 -6 5 4 9 -73 9
-194 l0 -201 300 0 300 0 0 500 0 500 -300 0 -300 0 -1 -87z"/>
<path d="M70 980 c0 -5 5 -10 10 -10 6 0 10 5 10 10 0 6 -4 10 -10 10 -5 0
-10 -4 -10 -10z"/>
<path d="M377 976 c-4 -10 -1 -13 8 -9 8 3 12 9 9 14 -7 12 -11 11 -17 -5z"/>
<path d="M737 977 c3 -4 12 -7 21 -5 10 2 22 -3 29 -12 10 -13 14 -13 25 -1
11 12 11 13 -1 6 -8 -4 -17 -2 -21 5 -5 8 -20 14 -33 14 -14 1 -23 -2 -20 -7z"/>
<path d="M830 981 c0 -10 29 -36 34 -30 1 2 -6 12 -16 22 -10 9 -18 13 -18 8z"/>
<path d="M910 980 c0 -5 5 -10 10 -10 6 0 10 5 10 10 0 6 -4 10 -10 10 -5 0
-10 -4 -10 -10z"/>
<path d="M422 960 c7 -10 14 -18 15 -16 6 6 -9 36 -18 36 -5 0 -4 -9 3 -20z"/>
<path d="M18 959 c-16 -9 -17 -48 -18 -485 l0 -474 505 1 c296 1 505 6 505 11
0 5 -6 6 -12 2 -10 -5 -10 -4 -1 6 8 9 9 19 2 32 -5 10 -7 18 -4 18 4 0 -4 18
-16 40 -16 27 -33 43 -58 52 -20 7 -39 11 -43 10 -5 -1 -8 3 -8 9 0 5 -5 7
-11 3 -6 -3 -9 -19 -7 -34 2 -14 -1 -27 -6 -27 -6 0 -22 -3 -35 -7 -16 -6 -21
-5 -17 3 4 6 1 11 -7 11 -25 0 -80 59 -92 100 -7 22 -6 23 9 11 14 -12 16 -12
10 2 -6 16 10 18 34 4 7 -5 12 -3 12 5 0 10 2 10 9 -1 7 -11 10 -11 12 2 4 15
7 16 34 1 28 -14 30 -14 47 8 19 25 18 45 -3 40 -8 -2 -18 -4 -24 -5 -5 -1
-13 -6 -17 -12 -4 -6 -8 -2 -8 8 0 9 -4 17 -10 17 -5 0 -10 6 -10 13 0 7 -12
13 -27 12 -20 0 -27 4 -25 15 2 8 -5 20 -14 27 -16 12 -16 13 7 14 17 1 19 3
6 6 -16 4 -15 7 8 25 14 10 25 25 25 31 0 7 -9 1 -20 -13 -16 -20 -20 -22 -20
-8 0 10 9 23 20 30 22 14 27 30 9 25 -6 -1 -14 5 -16 13 -4 13 -3 13 6 0 10
-15 12 -13 15 12 0 8 20 14 47 16 38 3 51 -1 68 -19 12 -13 21 -29 21 -36 0
-7 4 -13 9 -13 4 0 6 11 3 25 -2 14 -8 25 -13 25 -5 0 -9 7 -9 15 0 18 -45 49
-62 42 -7 -2 -21 0 -30 5 -11 5 -18 5 -18 -1 0 -5 -8 -8 -17 -7 -22 1 -72 -72
-73 -106 0 -16 -4 -28 -9 -28 -5 0 -7 -9 -4 -20 3 -11 1 -20 -5 -20 -16 0 -25
20 -10 20 7 0 5 5 -6 11 -14 9 -20 8 -26 -1 -4 -7 -10 -8 -13 -3 -6 10 6 35
18 35 4 0 11 -6 16 -13 4 -8 11 -10 16 -6 10 10 -18 28 -31 20 -5 -4 -7 1 -3
11 4 9 3 14 -2 11 -5 -3 -13 -1 -16 5 -5 8 -11 7 -21 -1 -17 -14 -19 2 -1 21
10 12 9 12 -4 2 -14 -10 -18 -10 -23 3 -3 9 -11 13 -17 9 -9 -5 -7 -11 5 -20
10 -7 15 -18 11 -24 -5 -8 -13 -4 -24 13 -11 17 -23 23 -41 20 -14 -2 -34 -4
-45 -4 -16 0 -17 -2 -5 -9 8 -5 11 -10 6 -10 -5 0 -3 -7 4 -15 14 -17 0 -21
-16 -5 -7 7 -11 7 -12 -2 -2 -22 -7 -43 -15 -55 -5 -8 -4 -13 2 -13 6 0 11 5
11 10 0 6 4 10 10 10 5 0 6 -8 3 -17 -6 -16 -5 -16 11 -4 16 14 16 15 -4 26
-20 11 -21 13 -5 19 10 3 20 4 23 1 3 -3 -1 -5 -8 -5 -7 0 -11 -3 -8 -6 4 -3
17 -1 30 6 21 10 21 10 5 -3 -16 -13 -16 -15 -2 -21 11 -4 14 -2 10 7 -4 6 0
4 7 -5 13 -15 15 -15 26 0 11 16 11 16 6 0 -5 -14 0 -16 23 -14 15 2 34 -1 41
-6 6 -6 12 -7 12 -2 0 4 6 0 13 -11 15 -19 42 -12 30 8 -3 7 3 4 14 -6 11 -9
24 -14 28 -10 5 5 5 1 -1 -7 -6 -8 -9 -26 -8 -40 1 -13 -6 -31 -15 -38 -15
-13 -15 -13 0 -9 13 4 15 1 11 -15 -4 -18 -6 -18 -14 -4 -7 12 -14 14 -27 7
-14 -8 -17 -6 -16 7 0 10 4 23 9 30 4 6 3 12 -3 12 -5 0 -13 -5 -16 -10 -4 -6
-15 -8 -25 -5 -14 4 -18 1 -16 -12 2 -10 1 -12 -1 -6 -3 7 -9 13 -15 13 -5 0
-8 7 -5 15 4 8 2 17 -2 20 -11 6 -23 -23 -16 -36 4 -5 -1 -6 -10 -3 -10 4 -14
1 -12 -7 2 -8 2 -11 0 -6 -3 4 -10 4 -16 0 -9 -5 -9 -3 -1 8 6 8 12 21 12 29
1 8 3 28 4 44 2 16 -2 31 -9 33 -7 3 -10 -5 -9 -21 5 -38 -7 -50 -33 -37 -12
7 -25 10 -30 7 -4 -3 -8 1 -8 8 0 8 6 12 14 9 16 -6 17 13 1 23 -6 4 -14 2
-16 -4 -2 -7 -9 -9 -15 -5 -7 4 -7 1 1 -9 11 -14 10 -18 -8 -31 -18 -13 -19
-15 -5 -21 9 -3 13 -11 10 -16 -4 -6 -1 -19 6 -28 12 -14 10 -14 -8 1 -20 18
-21 18 -19 0 1 -13 -6 -18 -26 -18 -14 1 -24 -4 -21 -9 4 -5 -1 -7 -11 -3 -9
4 -15 3 -12 -2 9 -14 -39 -42 -52 -29 -6 6 -12 6 -17 -3 -6 -8 -4 -10 6 -4 10
6 11 5 3 -4 -6 -6 -18 -9 -28 -5 -14 5 -14 9 -4 23 11 14 11 14 -3 4 -9 -7
-20 -9 -25 -5 -4 4 -3 0 4 -9 10 -13 9 -19 -3 -29 -22 -18 -18 -29 8 -24 20 4
20 4 2 -5 -25 -11 -44 4 -27 21 7 7 12 16 12 22 0 6 -5 5 -12 -2 -15 -15 -31
-16 -22 0 7 11 11 64 17 200 1 38 5 68 8 68 3 0 6 7 6 15 0 8 -5 15 -11 15 -6
0 -5 4 3 9 17 11 23 51 8 51 -6 0 -2 10 9 22 10 12 13 18 7 14 -14 -8 -18 6
-6 18 9 9 11 46 3 46 -4 0 -7 7 -7 15 0 8 4 12 8 9 12 -7 17 19 8 48 -4 16 -3
30 2 33 5 4 9 1 9 -6 0 -7 3 -9 6 -6 4 4 1 13 -5 21 -7 9 -8 17 -2 20 5 3 7
15 4 27 -7 24 16 71 30 62 6 -4 7 -1 2 7 -6 10 -4 12 8 7 9 -3 19 -2 22 2 2 5
-11 8 -29 6 -27 -1 -33 1 -28 13 3 10 1 13 -5 9 -12 -7 -36 12 -52 40 -11 20
-71 25 -78 6 -3 -7 -9 -13 -15 -13 -5 0 -6 5 -2 12 4 7 3 8 -5 4 -6 -4 -17 -3
-24 2 -8 7 -18 7 -29 1z m27 -9 c3 -6 -4 -10 -17 -10 -18 0 -20 2 -8 10 19 12
18 12 25 0z m119 -228 c3 -5 -1 -9 -9 -9 -8 0 -12 4 -9 9 3 4 7 8 9 8 2 0 6
-4 9 -8z m-20 -200 c3 -5 -1 -9 -9 -9 -8 0 -12 4 -9 9 3 4 7 8 9 8 2 0 6 -4 9
-8z m389 -54 c-2 -8 6 -14 17 -15 11 -1 20 4 20 10 1 7 7 1 16 -13 13 -22 14
-22 9 -3 -3 12 -1 24 4 27 15 10 23 -12 12 -33 -12 -22 8 -48 25 -31 7 7 10 1
10 -15 0 -28 -11 -33 -20 -9 -3 8 -10 13 -15 9 -5 -3 -12 -1 -15 4 -4 5 -17 8
-31 7 -13 -2 -22 0 -20 5 3 4 1 10 -4 13 -5 4 -12 2 -16 -4 -10 -16 -25 -2
-18 16 5 13 1 15 -18 9 -16 -4 -20 -3 -11 3 11 7 10 11 -5 16 -17 7 -17 8 0
21 22 16 63 5 60 -17z m-79 -154 c17 -10 17 -12 1 -17 -19 -8 -58 10 -50 23 6
10 24 8 49 -6z m26 -29 c-7 -8 -17 -15 -23 -15 -6 0 -2 8 9 19 22 21 33 19 14
-4z m-45 -15 c10 -11 16 -20 13 -20 -3 0 -13 9 -23 20 -10 11 -16 20 -13 20 3
0 13 -9 23 -20z m175 0 c0 -5 -5 -10 -11 -10 -5 0 -7 5 -4 10 3 6 8 10 11 10
2 0 4 -4 4 -10z m-361 -110 c-6 -5 -18 -6 -26 -3 -19 8 -16 11 13 11 17 0 22
-3 13 -8z m-81 -45 c-3 -3 -9 2 -12 12 -6 14 -5 15 5 6 7 -7 10 -15 7 -18z
m62 6 c0 -6 -4 -12 -8 -15 -5 -3 -9 1 -9 9 0 8 4 15 9 15 4 0 8 -4 8 -9z m665
-81 c3 -6 -1 -7 -9 -4 -18 7 -21 14 -7 14 6 0 13 -4 16 -10z"/>
<path d="M481 481 c-10 -6 -9 -10 3 -14 8 -3 18 -2 21 3 8 13 -9 20 -24 11z"/>
<path d="M514 440 c0 -13 4 -16 10 -10 7 7 7 13 0 20 -6 6 -10 3 -10 -10z"/>
<path d="M540 443 c0 -7 9 -17 20 -23 11 -6 20 -8 20 -4 0 3 8 0 17 -7 13 -11
13 -8 -2 12 -14 18 -22 23 -27 15 -6 -8 -11 -7 -18 4 -6 9 -10 11 -10 3z"/>
<path d="M430 310 c0 -5 5 -10 11 -10 5 0 7 5 4 10 -3 6 -8 10 -11 10 -2 0 -4
-4 -4 -10z"/>
<path d="M500 960 c-12 -7 -10 -9 7 -7 12 0 19 5 17 9 -6 10 -6 10 -24 -2z"/>
<path d="M630 960 c0 -5 7 -7 15 -4 8 4 15 8 15 10 0 2 -7 4 -15 4 -8 0 -15
-4 -15 -10z"/>
<path d="M708 963 c7 -3 16 -2 19 1 4 3 -2 6 -13 5 -11 0 -14 -3 -6 -6z"/>
<path d="M944 952 c0 -10 6 -19 13 -19 8 0 9 6 2 19 -5 10 -11 18 -12 18 -2 0
-3 -8 -3 -18z"/>
<path d="M990 960 c0 -5 5 -10 11 -10 5 0 7 5 4 10 -3 6 -8 10 -11 10 -2 0 -4
-4 -4 -10z"/>
<path d="M1027 964 c-4 -4 -7 -12 -7 -18 0 -6 5 -4 10 4 9 13 11 13 21 0 9
-12 10 -12 7 -1 -5 17 -21 25 -31 15z"/>
<path d="M1075 960 c-3 -5 -1 -10 4 -10 6 0 11 5 11 10 0 6 -2 10 -4 10 -3 0
-8 -4 -11 -10z"/>
<path d="M190 950 c0 -5 5 -10 11 -10 5 0 7 5 4 10 -3 6 -8 10 -11 10 -2 0 -4
-4 -4 -10z"/>
<path d="M380 941 c-13 -25 -13 -31 0 -31 6 0 9 3 9 8 -3 19 2 33 11 27 6 -3
10 -1 10 4 0 18 -19 12 -30 -8z"/>
<path d="M350 939 c0 -5 5 -7 10 -4 6 3 10 8 10 11 0 2 -4 4 -10 4 -5 0 -10
-5 -10 -11z"/>
<path d="M604 935 c-4 -8 -11 -12 -17 -8 -6 3 -7 1 -3 -5 10 -17 26 -15 26 4
0 9 5 12 12 8 7 -4 8 -3 4 4 -10 16 -15 15 -22 -3z"/>
<path d="M1093 937 c-4 -6 -1 -7 7 -2 10 6 12 4 7 -7 -6 -17 16 -19 30 -3 5 4
2 5 -6 0 -10 -6 -13 -4 -9 7 7 16 -19 21 -29 5z"/>
<path d="M1185 940 c-3 -6 1 -7 9 -4 18 7 21 14 7 14 -6 0 -13 -4 -16 -10z"/>
<path d="M1226 938 c3 -4 9 -8 15 -8 5 0 9 4 9 8 0 5 -7 9 -15 9 -8 0 -12 -4
-9 -9z"/>
<path d="M1295 940 c3 -5 8 -10 11 -10 2 0 4 5 4 10 0 6 -5 10 -11 10 -5 0 -7
-4 -4 -10z"/>
<path d="M234 929 c-3 -6 -1 -16 4 -21 8 -8 11 -5 9 11 -1 24 -3 25 -13 10z"/>
<path d="M432 914 c-7 -8 -8 -14 -3 -14 10 0 25 19 20 25 -2 1 -10 -3 -17 -11z"/>
<path d="M650 920 c0 -5 5 -10 10 -10 6 0 10 5 10 10 0 6 -4 10 -10 10 -5 0
-10 -4 -10 -10z"/>
<path d="M685 919 c-3 -4 2 -6 10 -5 21 3 28 13 10 13 -9 0 -18 -4 -20 -8z"/>
<path d="M733 915 c0 -8 4 -12 9 -9 4 3 8 9 8 15 0 5 -4 9 -8 9 -5 0 -9 -7 -9
-15z"/>
<path d="M886 918 c3 -5 9 -7 12 -4 3 3 12 0 21 -6 13 -10 14 -10 4 2 -15 16
-46 23 -37 8z"/>
<path d="M1073 905 c0 -8 10 -23 21 -32 21 -18 21 -18 4 2 -9 11 -17 24 -16
28 0 5 -2 11 -4 13 -3 2 -5 -3 -5 -11z"/>
<path d="M468 903 c6 -2 9 -10 6 -15 -4 -7 -2 -8 5 -4 13 9 5 26 -12 25 -9 0
-8 -2 1 -6z"/>
<path d="M1025 900 c-3 -6 1 -7 9 -4 18 7 21 14 7 14 -6 0 -13 -4 -16 -10z"/>
<path d="M1151 894 c6 -7 8 -18 5 -23 -4 -5 -3 -12 2 -15 5 -3 8 8 8 23 0 16
-5 28 -13 28 -9 0 -10 -4 -2 -13z"/>
<path d="M1187 899 c7 -7 15 -10 18 -7 3 3 -2 9 -12 12 -14 6 -15 5 -6 -5z"/>
<path d="M1307 899 c7 -7 15 -10 18 -7 3 3 -2 9 -12 12 -14 6 -15 5 -6 -5z"/>
<path d="M613 886 c0 -8 5 -14 11 -13 6 1 10 -4 8 -11 -1 -8 2 -11 8 -7 8 5 6
13 -6 26 -21 23 -21 23 -21 5z"/>
<path d="M686 881 c-14 -15 -15 -21 -4 -27 7 -4 10 -3 5 1 -4 5 0 17 10 27 9
10 14 18 11 18 -3 0 -13 -9 -22 -19z"/>
<path d="M966 885 c-18 -14 -18 -14 1 -12 11 0 20 7 20 14 0 7 -1 13 -1 13 -1
0 -9 -7 -20 -15z"/>
<path d="M516 878 c3 -5 10 -6 15 -3 13 9 11 12 -6 12 -8 0 -12 -4 -9 -9z"/>
<path d="M750 886 c0 -2 7 -7 16 -10 8 -3 12 -2 9 4 -6 10 -25 14 -25 6z"/>
<path d="M1040 880 c-9 -6 -10 -10 -3 -10 6 0 15 5 18 10 8 12 4 12 -15 0z"/>
<path d="M573 865 c0 -8 4 -12 9 -9 5 3 6 10 3 15 -9 13 -12 11 -12 -6z"/>
<path d="M310 860 c0 -5 5 -10 10 -10 6 0 10 5 10 10 0 6 -4 10 -10 10 -5 0
-10 -4 -10 -10z"/>
<path d="M710 858 c0 -4 4 -8 9 -8 6 0 12 4 15 8 3 5 -1 9 -9 9 -8 0 -15 -4
-15 -9z"/>
<path d="M815 860 c3 -5 8 -10 11 -10 2 0 4 5 4 10 0 6 -5 10 -11 10 -5 0 -7
-4 -4 -10z"/>
<path d="M250 842 c0 -5 7 -9 15 -9 8 0 12 4 9 9 -3 4 -9 8 -15 8 -5 0 -9 -4
-9 -8z"/>
<path d="M1190 819 c0 -5 5 -7 10 -4 6 3 10 8 10 11 0 2 -4 4 -10 4 -5 0 -10
-5 -10 -11z"/>
<path d="M1225 820 c-3 -6 1 -7 9 -4 18 7 21 14 7 14 -6 0 -13 -4 -16 -10z"/>
<path d="M1136 778 c3 -5 10 -6 15 -3 13 9 11 12 -6 12 -8 0 -12 -4 -9 -9z"/>
<path d="M1235 779 c-3 -4 2 -6 10 -5 21 3 28 13 10 13 -9 0 -18 -4 -20 -8z"/>
<path d="M367 759 c7 -7 15 -10 18 -7 3 3 -2 9 -12 12 -14 6 -15 5 -6 -5z"/>
<path d="M1175 731 c-3 -5 -2 -12 3 -15 5 -3 9 1 9 9 0 17 -3 19 -12 6z"/>
<path d="M1276 633 c-6 -14 -5 -15 5 -6 7 7 10 15 7 18 -3 3 -9 -2 -12 -12z"/>
<path d="M810 429 c0 -5 -6 -7 -12 -3 -10 6 -10 4 0 -8 9 -11 10 -18 2 -23 -5
-3 -10 -12 -9 -18 0 -9 2 -8 6 1 2 6 8 10 11 8 4 -2 8 9 8 25 1 16 0 29 -2 29
-2 0 -4 -5 -4 -11z"/>
<path d="M246 418 c3 -5 10 -6 15 -3 13 9 11 12 -6 12 -8 0 -12 -4 -9 -9z"/>
<path d="M190 406 c0 -2 7 -7 16 -10 8 -3 12 -2 9 4 -6 10 -25 14 -25 6z"/>
<path d="M464 388 c-14 -23 -12 -46 4 -40 11 4 13 1 7 -8 -5 -9 -4 -11 4 -6 9
6 9 11 0 22 -9 11 -8 14 2 14 12 0 12 2 0 9 -11 7 -11 9 0 14 9 3 10 6 2 6 -6
1 -15 -5 -19 -11z"/>
<path d="M525 366 c1 -12 -3 -29 -7 -38 -5 -11 -5 -18 1 -18 13 0 21 27 15 48
-4 10 -2 13 3 7 10 -12 33 -18 33 -7 0 4 -11 12 -24 18 -20 9 -23 8 -21 -10z"/>
<path d="M564 377 c19 -14 14 -43 -5 -32 -5 4 -9 2 -9 -4 0 -5 5 -13 10 -16 6
-4 8 -10 6 -14 -3 -4 7 -7 22 -6 16 0 26 6 25 13 -3 14 6 15 26 3 12 -8 12
-12 2 -24 -7 -9 -8 -18 -3 -21 14 -9 38 26 36 54 -2 41 -3 43 -18 31 -12 -10
-20 -9 -42 5 -15 10 -36 20 -48 21 -20 3 -20 3 -2 -10z m90 -28 c14 12 15 10
7 -28 -1 -2 -11 3 -23 11 -29 19 -54 13 -37 -8 15 -19 2 -18 -17 1 -14 13 -13
16 8 24 14 5 28 5 36 -1 8 -7 17 -7 26 1z m16 -43 c0 -2 -8 -10 -17 -17 -16
-13 -17 -12 -4 4 13 16 21 21 21 13z"/>
<path d="M226 362 c-3 -5 1 -9 9 -9 8 0 12 4 9 9 -3 4 -7 8 -9 8 -2 0 -6 -4
-9 -8z"/>
<path d="M755 359 c-11 -16 -1 -19 13 -3 7 8 8 14 3 14 -5 0 -13 -5 -16 -11z"/>
<path d="M180 346 c0 -2 8 -10 18 -17 15 -13 16 -12 3 4 -13 16 -21 21 -21 13z"/>
<path d="M225 320 c-3 -6 1 -7 9 -4 18 7 21 14 7 14 -6 0 -13 -4 -16 -10z"/>
<path d="M355 260 c3 -5 8 -10 11 -10 2 0 4 5 4 10 0 6 -5 10 -11 10 -5 0 -7
-4 -4 -10z"/>
</g>
</svg>
