<?xml version="1.0" standalone="no"?>
<!DOCTYPE svg PUBLIC "-//W3C//DTD SVG 20010904//EN"
 "http://www.w3.org/TR/2001/REC-SVG-20010904/DTD/svg10.dtd">
<svg version="1.0" xmlns="http://www.w3.org/2000/svg"
 width="6048.000000pt" height="5328.000000pt" viewBox="0 0 6048.000000 5328.000000"
 preserveAspectRatio="xMidYMid meet">
<metadata>
Created by potrace 1.12, written by Peter Selinger 2001-2015
</metadata>
<g transform="translate(0.000000,5328.000000) scale(7.200000,-7.200000)"
fill="#000000" stroke="none">
<path d="M555 646 c-119 -45 -61 -146 83 -146 123 1 188 90 100 136 -44 23
-135 27 -183 10z m144 -47 c17 -6 31 -15 31 -19 0 -12 -58 -30 -95 -30 -37 0
-95 18 -95 30 0 25 106 37 159 19z"/>
<path d="M183 614 c-4 -11 22 -44 85 -107 l91 -92 -49 -27 c-50 -28 -64 -53
-35 -64 8 -3 38 8 68 25 l54 31 31 -33 c18 -18 32 -36 32 -40 0 -14 -121 -86
-172 -103 -28 -9 -74 -19 -102 -23 -42 -5 -51 -9 -51 -26 0 -18 6 -20 60 -18
75 2 157 32 243 89 l66 45 62 -62 c42 -42 67 -60 78 -56 27 11 18 31 -43 91
l-60 59 29 41 c79 111 24 168 -112 116 l-53 -20 -95 95 c-52 52 -101 95 -108
95 -7 0 -15 -7 -19 -16z m377 -189 c0 -3 -12 -23 -27 -46 l-26 -40 -29 28
c-15 14 -28 30 -28 33 0 4 15 12 33 18 35 11 77 15 77 7z"/>
</g>
</svg>
